<svg width="1024" height="622.0000000000001" xmlns="http://www.w3.org/2000/svg" xmlns:xlink="http://www.w3.org/1999/xlink">
 <defs>
  <linearGradient y2="-0.000118" x2="0.500053" y1="0.999526" x1="0.500053" id="cb4c75d7-b8af-4b7c-b93c-0d81a615737d">
   <stop stop-opacity="0.25" stop-color="gray" offset="0"/>
   <stop stop-opacity="0.12" stop-color="gray" offset="0.54"/>
   <stop stop-opacity="0.1" stop-color="gray" offset="1"/>
  </linearGradient>
  <linearGradient xlink:href="#cb4c75d7-b8af-4b7c-b93c-0d81a615737d" gradientTransform="translate(-261.96 -454.67) rotate(-3.75)" y2="514.61" x2="370.41" y1="529.73" x1="370.41" id="7dbfc0ad-0edd-4962-ae53-3e10f8076a30"/>
  <linearGradient xlink:href="#cb4c75d7-b8af-4b7c-b93c-0d81a615737d" gradientTransform="translate(-261.96 -454.67) rotate(-3.75)" y2="492.63" x2="472.13" y1="507.75" x1="472.13" id="2e677a00-ad84-462f-a755-cc915391eaef"/>
  <linearGradient xlink:href="#cb4c75d7-b8af-4b7c-b93c-0d81a615737d" gradientTransform="translate(-332.83 -332.73) rotate(-13.48)" y2="494.63" x2="646.14" y1="517.73" x1="646.14" id="6fc9dfcb-959f-45f5-9e30-981ed1ece4ee"/>
  <linearGradient xlink:href="#cb4c75d7-b8af-4b7c-b93c-0d81a615737d" gradientTransform="translate(-117.85 -585.68) rotate(10.2)" y2="548.06" x2="557.24" y1="563.18" x1="557.24" id="39a84653-3cf1-4134-ab42-bf2b0e824fc4"/>
  <linearGradient xlink:href="#cb4c75d7-b8af-4b7c-b93c-0d81a615737d" gradientTransform="translate(-261.96 -454.67) rotate(-3.75)" y2="610.73" x2="441.24" y1="625.84" x1="441.24" id="7782327f-ae36-4a9a-b462-151375f444b6"/>
  <linearGradient xlink:href="#cb4c75d7-b8af-4b7c-b93c-0d81a615737d" gradientTransform="translate(-332.83 -332.73) rotate(-13.48)" y2="536.88" x2="662.02" y1="559.99" x1="662.02" id="8fce74bc-e786-4184-8196-133889bce917"/>
  <linearGradient xlink:href="#cb4c75d7-b8af-4b7c-b93c-0d81a615737d" gradientTransform="translate(-332.83 -332.73) rotate(-13.48)" y2="664.62" x2="718.48" y1="687.72" x1="718.48" id="ec4cef39-2f7d-4633-a76d-8aa6eb49d472"/>
  <linearGradient xlink:href="#cb4c75d7-b8af-4b7c-b93c-0d81a615737d" gradientTransform="translate(-332.83 -332.73) rotate(-13.48)" y2="779.08" x2="960.18" y1="802.18" x1="960.18" id="a0c3a354-3d2b-4575-9c71-49ce4224960a"/>
  <linearGradient xlink:href="#cb4c75d7-b8af-4b7c-b93c-0d81a615737d" gradientTransform="translate(-117.85 -585.68) rotate(10.2)" y2="635.14" x2="576.26" y1="650.26" x1="576.26" id="40fab73a-0f13-498f-8851-d851c09f96b3"/>
  <linearGradient xlink:href="#cb4c75d7-b8af-4b7c-b93c-0d81a615737d" gradientTransform="translate(-117.85 -585.68) rotate(10.2)" y2="700.26" x2="953.34" y1="715.38" x1="953.34" id="0d812ec4-18d3-4fc9-95b5-b567b3aa17d2"/>
  <linearGradient xlink:href="#cb4c75d7-b8af-4b7c-b93c-0d81a615737d" gradientTransform="translate(-117.85 -585.68) rotate(10.2)" y2="567.79" x2="907.15" y1="582.9" x1="907.15" id="c67bcd62-ea1d-4e84-87c1-af7379266e5a"/>
  <linearGradient xlink:href="#cb4c75d7-b8af-4b7c-b93c-0d81a615737d" gradientTransform="translate(-117.85 -585.68) rotate(10.2)" y2="421.82" x2="1066.36" y1="436.94" x1="1066.36" id="7fce4d5f-14d9-4f34-a1c1-b993bca17afd"/>
  <linearGradient xlink:href="#cb4c75d7-b8af-4b7c-b93c-0d81a615737d" gradientTransform="translate(-117.85 -585.68) rotate(10.2)" y2="578.18" x2="408.47" y1="593.3" x1="408.47" id="fb214ff2-ed96-4be0-880a-75de4a76f8f9"/>
  <linearGradient xlink:href="#cb4c75d7-b8af-4b7c-b93c-0d81a615737d" gradientTransform="translate(-261.96 -454.67) rotate(-3.75)" y2="539.31" x2="795.18" y1="562.41" x1="795.18" id="4d87164c-caac-4a77-9549-821d8d9bfaaa"/>
  <linearGradient xlink:href="#cb4c75d7-b8af-4b7c-b93c-0d81a615737d" gradientTransform="translate(218.15 -819.06) rotate(27.07)" y2="692.09" x2="818.98" y1="744.95" x1="818.98" id="468c021b-e5c9-4e7f-8066-86a3295c31c0"/>
  <linearGradient xlink:href="#cb4c75d7-b8af-4b7c-b93c-0d81a615737d" gradientTransform="matrix(0.9, 0.43, -0.43, 0.9, 289.5, -873.01)" y2="831.19" x2="1009.63" y1="941.57" x1="1009.63" id="2bba3003-1a7c-40bc-8007-601995116a1b"/>
  <linearGradient xlink:href="#cb4c75d7-b8af-4b7c-b93c-0d81a615737d" gradientTransform="matrix(1, -0.01, 0.01, 1, -233.9, -501.24)" y2="525.62" x2="983.97" y1="578.48" x1="983.97" id="7d984b9b-79bf-4ccd-9c01-273bb4695a47"/>
  <linearGradient xlink:href="#cb4c75d7-b8af-4b7c-b93c-0d81a615737d" gradientTransform="matrix(1, -0.01, 0.01, 1, -233.9, -501.24)" y2="606.97" x2="1058.69" y1="659.83" x1="1058.69" id="fce4593a-d20b-4d6c-94f1-f929bcf1e06a"/>
  <linearGradient xlink:href="#cb4c75d7-b8af-4b7c-b93c-0d81a615737d" gradientTransform="translate(-261.96 -454.67) rotate(-3.75)" y2="596.23" x2="691.97" y1="619.33" x1="691.97" id="e7fad314-c36a-43e5-85d6-709074a63ec6"/>
  <linearGradient xlink:href="#cb4c75d7-b8af-4b7c-b93c-0d81a615737d" gradientTransform="translate(-261.96 -454.67) rotate(-3.75)" y2="594.41" x2="882.74" y1="617.51" x1="882.74" id="40600300-78d0-490f-be9f-5cfbcdd9ea47"/>
 </defs>
 <title>news</title>
 <g>
  <title>background</title>
  <rect fill="none" id="canvas_background" height="624" width="1026" y="-1" x="-1"/>
 </g>
 <g>
  <title>Layer 1</title>
  <polygon stroke="null" id="svg_581" fill="url(#7dbfc0ad-0edd-4962-ae53-3e10f8076a30)" points="18.79669952392578,42.99669647216797 19.54669189453125,42.61670684814453 19.36670684814453,42.596702575683594 19.42670440673828,42.55670166015625 19.31670379638672,42.586700439453125 -1.3232955932617188,39.91670227050781 -0.8832931518554688,46.74669647216797 -0.233306884765625,52.80670928955078 1.0366973876953125,52.156700134277344 2.216705322265625,54.836708068847656 18.79669952392578,42.99669647216797 "/>
  <polygon stroke="null" id="svg_582" fill="#209cee" points="-0.19329071044921875,46.61670684814453 0.40670013427734375,52.166709899902344 18.856704711914062,42.81670379638672 2.8367080688476562,43.16670227050781 -0.19329071044921875,46.61670684814453 "/>
  <polygon stroke="null" id="svg_583" opacity="0.2" points="-0.19329071044921875,46.61670684814453 0.40670013427734375,52.166709899902344 18.856704711914062,42.81670379638672 2.8367080688476562,43.16670227050781 -0.19329071044921875,46.61670684814453 "/>
  <polygon stroke="null" id="svg_584" fill="#209cee" points="-0.6032943725585938,40.36670684814453 18.856704711914062,42.81670379638672 -0.19329071044921875,46.61670684814453 -0.6032943725585938,40.36670684814453 "/>
  <polygon stroke="null" id="svg_585" fill="#209cee" points="2.6866989135742188,54.00670623779297 18.74671173095703,42.75670623779297 0.12670135498046875,48.29670715332031 2.6866989135742188,54.00670623779297 "/>
  <polygon stroke="null" id="svg_586" fill="url(#2e677a00-ad84-462f-a755-cc915391eaef)" points="118.86670684814453,14.406700134277344 119.61670684814453,14.026702880859375 119.43669891357422,13.9967041015625 119.49671173095703,13.956703186035156 119.38671112060547,13.9967041015625 98.73670196533203,11.326698303222656 99.18669891357422,18.156700134277344 99.83670806884766,24.216697692871094 101.1067123413086,23.56670379638672 102.28670501708984,26.24669647216797 118.86670684814453,14.406700134277344 "/>
  <polygon stroke="null" id="svg_587" fill="#209cee" points="99.87670135498047,18.026702880859375 100.4767074584961,23.576705932617188 118.92670440673828,14.226699829101562 102.90670013427734,14.576705932617188 99.87670135498047,18.026702880859375 "/>
  <polygon stroke="null" id="svg_588" opacity="0.2" points="99.87670135498047,18.026702880859375 100.4767074584961,23.576705932617188 118.92670440673828,14.226699829101562 102.90670013427734,14.576705932617188 99.87670135498047,18.026702880859375 "/>
  <polygon stroke="null" id="svg_589" fill="#209cee" points="99.46671295166016,11.776702880859375 118.92670440673828,14.226699829101562 99.87670135498047,18.026702880859375 99.46671295166016,11.776702880859375 "/>
  <polygon stroke="null" id="svg_590" fill="#209cee" points="102.75670623779297,25.416702270507812 118.81670379638672,14.166702270507812 100.19670867919922,19.696701049804688 102.75670623779297,25.416702270507812 "/>
  <g stroke="null" id="svg_596" opacity="0.5">
   <polygon stroke="null" id="svg_591" fill="url(#7782327f-ae36-4a9a-b462-151375f444b6)" points="95.7767105102539,134.2767105102539 96.5167007446289,133.88671112060547 96.3467025756836,133.86670684814453 96.3967056274414,133.82669830322266 96.28670501708984,133.8567123413086 75.6467056274414,131.18671417236328 76.0967025756836,138.0267105102539 76.74671173095703,144.07669830322266 78.0167007446289,143.42670440673828 79.18669891357422,146.1067123413086 95.7767105102539,134.2767105102539 "/>
   <polygon stroke="null" id="svg_592" fill="#209cee" points="76.78670501708984,137.8967056274414 77.38671112060547,143.43669891357422 95.83670806884766,134.08670806884766 79.81670379638672,134.43669891357422 76.78670501708984,137.8967056274414 "/>
   <polygon stroke="null" id="svg_593" opacity="0.2" points="76.78670501708984,137.8967056274414 77.38671112060547,143.43669891357422 95.83670806884766,134.08670806884766 79.81670379638672,134.43669891357422 76.78670501708984,137.8967056274414 "/>
   <polygon stroke="null" id="svg_594" fill="#209cee" points="76.37670135498047,131.6366958618164 95.83670806884766,134.08670806884766 76.78670501708984,137.8967056274414 76.37670135498047,131.6366958618164 "/>
   <polygon stroke="null" id="svg_595" fill="#209cee" points="79.66670989990234,145.2767105102539 95.7267074584961,134.0267105102539 77.1067123413086,139.56670379638672 79.66670989990234,145.2767105102539 "/>
  </g>
  <g stroke="null" id="svg_602" opacity="0.2">
   <polygon stroke="null" id="svg_597" fill="url(#8fce74bc-e786-4184-8196-133889bce917)" points="319.48668670654297,42.87670135498047 320.51668548583984,42.096702575683594 320.24669647216797,42.10669708251953 320.3266830444336,42.03669738769531 320.1666793823242,42.11670684814453 288.38668060302734,43.41670227050781 290.8266830444336,53.596702575683594 293.35668182373047,62.55670928955078 295.10668182373047,61.24669647216797 297.5766830444336,64.9767074584961 319.48668670654297,42.87670135498047 "/>
   <polygon stroke="null" id="svg_598" fill="#209cee" points="291.8266830444336,53.226707458496094 294.15670013427734,61.416709899902344 319.53670501708984,42.57670593261719 295.49669647216797,47.24669647216797 291.8266830444336,53.226707458496094 "/>
   <polygon stroke="null" id="svg_599" opacity="0.2" points="291.8266830444336,53.226707458496094 294.15670013427734,61.416709899902344 319.53670501708984,42.57670593261719 295.49669647216797,47.24669647216797 291.8266830444336,53.226707458496094 "/>
   <polygon stroke="null" id="svg_600" fill="#209cee" points="289.5967025756836,43.91670227050781 319.53670501708984,42.57670593261719 291.8266830444336,53.226707458496094 289.5967025756836,43.91670227050781 "/>
   <polygon stroke="null" id="svg_601" fill="#209cee" points="298.0667037963867,63.61670684814453 319.35668182373047,42.516700744628906 292.73668670654297,55.666709899902344 298.0667037963867,63.61670684814453 "/>
  </g>
  <g stroke="null" id="svg_608" opacity="0.3">
   <polygon stroke="null" id="svg_603" fill="url(#ec4cef39-2f7d-4633-a76d-8aa6eb49d472)" points="404.16670989990234,153.93669891357422 405.1866683959961,153.16670989990234 404.91670989990234,153.17670440673828 404.99666595458984,153.0967025756836 404.8366928100586,153.17670440673828 373.0566940307617,154.48670196533203 375.49669647216797,164.66670989990234 378.03670501708984,173.62670135498047 379.77669525146484,172.30670928955078 382.24666595458984,176.04669952392578 404.16670989990234,153.93669891357422 "/>
   <polygon stroke="null" id="svg_604" fill="#209cee" points="376.49669647216797,164.28670501708984 378.8266830444336,172.48670196533203 404.2166976928711,153.63671112060547 380.16670989990234,158.30670928955078 376.49669647216797,164.28670501708984 "/>
   <polygon stroke="null" id="svg_605" opacity="0.2" points="376.49669647216797,164.28670501708984 378.8266830444336,172.48670196533203 404.2166976928711,153.63671112060547 380.16670989990234,158.30670928955078 376.49669647216797,164.28670501708984 "/>
   <polygon stroke="null" id="svg_606" fill="#209cee" points="374.26668548583984,154.9767074584961 404.2166976928711,153.63671112060547 376.49669647216797,164.28670501708984 374.26668548583984,154.9767074584961 "/>
   <polygon stroke="null" id="svg_607" fill="#209cee" points="382.7367172241211,174.67670440673828 404.02669525146484,153.58670806884766 377.40670013427734,166.7267074584961 382.7367172241211,174.67670440673828 "/>
  </g>
  <g stroke="null" id="svg_614" opacity="0.3">
   <polygon stroke="null" id="svg_609" fill="url(#a0c3a354-3d2b-4575-9c71-49ce4224960a)" points="665.8766708374023,208.92668914794922 666.9067001342773,208.14669036865234 666.6366806030273,208.15670013427734 666.7166976928711,208.0866928100586 666.5566635131836,208.15670013427734 634.7766952514648,209.4666976928711 637.2166976928711,219.64669036865234 639.7466659545898,228.6067123413086 641.4966659545898,227.29668426513672 643.9566879272461,231.02669525146484 665.8766708374023,208.92668914794922 "/>
   <polygon stroke="null" id="svg_610" fill="#209cee" points="638.2166976928711,219.27669525146484 640.5467147827148,227.4666976928711 665.9267196655273,208.61669158935547 641.8866806030273,213.28670501708984 638.2166976928711,219.27669525146484 "/>
   <polygon stroke="null" id="svg_611" opacity="0.2" points="638.2166976928711,219.27669525146484 640.5467147827148,227.4666976928711 665.9267196655273,208.61669158935547 641.8866806030273,213.28670501708984 638.2166976928711,219.27669525146484 "/>
   <polygon stroke="null" id="svg_612" fill="#209cee" points="635.9867172241211,209.9666976928711 665.9267196655273,208.61669158935547 638.2166976928711,219.27669525146484 635.9867172241211,209.9666976928711 "/>
   <polygon stroke="null" id="svg_613" fill="#209cee" points="644.4566879272461,229.66670989990234 665.7466659545898,208.56670379638672 639.1266708374023,221.7066879272461 644.4566879272461,229.66670989990234 "/>
  </g>
  <g stroke="null" id="svg_620" opacity="0.5">
   <polygon stroke="null" id="svg_615" fill="url(#40fab73a-0f13-498f-8851-d851c09f96b3)" points="213.10668182373047,152.13671112060547 213.92668914794922,151.93669891357422 213.75667572021484,151.87670135498047 213.8266830444336,151.8467025756836 213.7066879272461,151.8567123413086 194.31670379638672,144.28670501708984 193.10668182373047,151.0267105102539 192.27669525146484,157.06670379638672 193.65670013427734,156.73670196533203 194.15670013427734,159.61670684814453 213.10668182373047,152.13671112060547 "/>
   <polygon stroke="null" id="svg_616" fill="#209cee" points="193.80669403076172,151.06670379638672 193.04668426513672,156.58670806884766 213.2066879272461,151.96671295166016 197.5766830444336,148.44670867919922 193.80669403076172,151.06670379638672 "/>
   <polygon stroke="null" id="svg_617" opacity="0.2" points="193.80669403076172,151.06670379638672 193.04668426513672,156.58670806884766 213.2066879272461,151.96671295166016 197.5766830444336,148.44670867919922 193.80669403076172,151.06670379638672 "/>
   <polygon stroke="null" id="svg_618" fill="#209cee" points="194.91667938232422,144.8967056274414 213.2066879272461,151.96671295166016 193.80669403076172,151.06670379638672 194.91667938232422,144.8967056274414 "/>
   <polygon stroke="null" id="svg_619" fill="#209cee" points="194.81670379638672,158.93669891357422 213.11669158935547,151.88671112060547 193.7066879272461,152.7667007446289 194.81670379638672,158.93669891357422 "/>
  </g>
  <g stroke="null" id="svg_626" opacity="0.5">
   <polygon stroke="null" id="svg_621" fill="url(#0d812ec4-18d3-4fc9-95b5-b567b3aa17d2)" points="572.6866683959961,282.98668670654297 573.5066757202148,282.7966842651367 573.3467025756836,282.72667694091797 573.4067001342773,282.7066879272461 573.2867050170898,282.7066879272461 553.9067001342773,275.14669036865234 552.6866683959961,281.88668060302734 551.8567123413086,287.9166793823242 553.2466659545898,287.5866928100586 553.7466659545898,290.47667694091797 572.6866683959961,282.98668670654297 "/>
   <polygon stroke="null" id="svg_622" fill="#209cee" points="553.3866806030273,281.9266891479492 552.6366806030273,287.4466781616211 572.7967147827148,282.8266830444336 557.1567001342773,279.3066940307617 553.3866806030273,281.9266891479492 "/>
   <polygon stroke="null" id="svg_623" opacity="0.2" points="553.3866806030273,281.9266891479492 552.6366806030273,287.4466781616211 572.7967147827148,282.8266830444336 557.1567001342773,279.3066940307617 553.3866806030273,281.9266891479492 "/>
   <polygon stroke="null" id="svg_624" fill="#209cee" points="554.4966659545898,275.75667572021484 572.7967147827148,282.8266830444336 553.3866806030273,281.9266891479492 554.4966659545898,275.75667572021484 "/>
   <polygon stroke="null" id="svg_625" fill="#209cee" points="554.3966903686523,289.78670501708984 572.6966781616211,282.73668670654297 553.2967147827148,283.62670135498047 554.3966903686523,289.78670501708984 "/>
  </g>
  <g stroke="null" id="svg_632" opacity="0.5">
   <polygon stroke="null" id="svg_627" fill="url(#c67bcd62-ea1d-4e84-87c1-af7379266e5a)" points="550.6966781616211,144.43669891357422 551.5166854858398,144.23670196533203 551.3467025756836,144.17670440673828 551.4167098999023,144.1467056274414 551.2967147827148,144.15670013427734 531.9067001342773,136.58670806884766 530.6966781616211,143.32669830322266 529.8666610717773,149.36670684814453 531.2566757202148,149.03670501708984 531.7566757202148,151.91670989990234 550.6966781616211,144.43669891357422 "/>
   <polygon stroke="null" id="svg_628" fill="#209cee" points="531.3966903686523,143.36670684814453 530.6366806030273,148.88671112060547 550.8066635131836,144.2667007446289 535.1667098999023,140.74671173095703 531.3966903686523,143.36670684814453 "/>
   <polygon stroke="null" id="svg_629" opacity="0.2" points="531.3966903686523,143.36670684814453 530.6366806030273,148.88671112060547 550.8066635131836,144.2667007446289 535.1667098999023,140.74671173095703 531.3966903686523,143.36670684814453 "/>
   <polygon stroke="null" id="svg_630" fill="#209cee" points="532.5066757202148,137.20670318603516 550.8066635131836,144.2667007446289 531.3966903686523,143.36670684814453 532.5066757202148,137.20670318603516 "/>
   <polygon stroke="null" id="svg_631" fill="#209cee" points="532.4067001342773,151.23670196533203 550.7066879272461,144.18669891357422 531.2967147827148,145.06670379638672 532.4067001342773,151.23670196533203 "/>
  </g>
  <g stroke="null" id="svg_638" opacity="0.2">
   <polygon stroke="null" id="svg_633" fill="url(#7fce4d5f-14d9-4f34-a1c1-b993bca17afd)" points="733.2367172241211,28.966705322265625 734.0566635131836,28.776702880859375 733.8966903686523,28.716705322265625 733.9566879272461,28.68670654296875 733.8366928100586,28.696701049804688 714.4466781616211,21.12670135498047 713.2367172241211,27.86670684814453 712.4067001342773,33.906700134277344 713.7967147827148,33.57670593261719 714.2967147827148,36.456695556640625 733.2367172241211,28.966705322265625 "/>
   <polygon stroke="null" id="svg_634" fill="#209cee" points="713.9366683959961,27.906700134277344 713.1767196655273,33.42670440673828 733.3467025756836,28.80670166015625 717.7066879272461,25.286705017089844 713.9366683959961,27.906700134277344 "/>
   <polygon stroke="null" id="svg_635" opacity="0.2" points="713.9366683959961,27.906700134277344 713.1767196655273,33.42670440673828 733.3467025756836,28.80670166015625 717.7066879272461,25.286705017089844 713.9366683959961,27.906700134277344 "/>
   <polygon stroke="null" id="svg_636" fill="#209cee" points="715.0467147827148,21.73670196533203 733.3467025756836,28.80670166015625 713.9366683959961,27.906700134277344 715.0467147827148,21.73670196533203 "/>
   <polygon stroke="null" id="svg_637" fill="#209cee" points="714.9466781616211,35.776702880859375 733.2466659545898,28.716705322265625 713.8467025756836,29.60669708251953 714.9466781616211,35.776702880859375 "/>
  </g>
  <g stroke="null" id="svg_644" opacity="0.2">
   <polygon stroke="null" id="svg_639" fill="url(#fb214ff2-ed96-4be0-880a-75de4a76f8f9)" points="58.05670928955078,66.35669708251953 58.87670135498047,66.16670989990234 58.706703186035156,66.0967025756836 58.776710510253906,66.07669830322266 58.656700134277344,66.07669830322266 39.266700744628906,58.516700744628906 38.05670928955078,65.25670623779297 37.216705322265625,71.28670501708984 38.61670684814453,70.95670318603516 39.10670471191406,73.8467025756836 58.05670928955078,66.35669708251953 "/>
   <polygon stroke="null" id="svg_640" fill="#209cee" points="38.75670623779297,65.29669952392578 37.99671173095703,70.81670379638672 58.156700134277344,66.19670867919922 42.526710510253906,62.67670440673828 38.75670623779297,65.29669952392578 "/>
   <polygon stroke="null" id="svg_641" opacity="0.2" points="38.75670623779297,65.29669952392578 37.99671173095703,70.81670379638672 58.156700134277344,66.19670867919922 42.526710510253906,62.67670440673828 38.75670623779297,65.29669952392578 "/>
   <polygon stroke="null" id="svg_642" fill="#209cee" points="39.86670684814453,59.12670135498047 58.156700134277344,66.19670867919922 38.75670623779297,65.29669952392578 39.86670684814453,59.12670135498047 "/>
   <polygon stroke="null" id="svg_643" fill="#209cee" points="39.766693115234375,73.15670013427734 58.06670379638672,66.10669708251953 38.656700134277344,66.99669647216797 39.766693115234375,73.15670013427734 "/>
  </g>
  <polygon stroke="null" id="svg_645" fill="url(#4d87164c-caac-4a77-9549-821d8d9bfaaa)" points="449.4666976928711,41.836700439453125 450.6067123413086,41.24669647216797 450.3366928100586,41.206703186035156 450.42671966552734,41.146705627441406 450.25667572021484,41.19670104980469 418.7066879272461,37.11670684814453 419.39669036865234,47.56670379638672 420.38668060302734,56.826698303222656 422.3266830444336,55.81670379638672 424.12667083740234,59.916709899902344 449.4666976928711,41.836700439453125 "/>
  <polygon stroke="null" id="svg_646" fill="#209cee" points="420.4466781616211,47.36670684814453 421.3567123413086,55.836708068847656 449.5566635131836,41.54669952392578 425.0766830444336,42.086700439453125 420.4466781616211,47.36670684814453 "/>
  <polygon stroke="null" id="svg_647" opacity="0.2" points="420.4466781616211,47.36670684814453 421.3567123413086,55.836708068847656 449.5566635131836,41.54669952392578 425.0766830444336,42.086700439453125 420.4466781616211,47.36670684814453 "/>
  <polygon stroke="null" id="svg_648" fill="#209cee" points="419.8166732788086,37.80670166015625 449.5566635131836,41.54669952392578 420.4466781616211,47.36670684814453 419.8166732788086,37.80670166015625 "/>
  <polygon stroke="null" id="svg_649" fill="#209cee" points="424.8467025756836,58.656700134277344 449.39669036865234,41.456703186035156 420.9366683959961,49.916709899902344 424.8467025756836,58.656700134277344 "/>
  <polygon stroke="null" id="svg_660" fill="url(#fce4593a-d20b-4d6c-94f1-f929bcf1e06a)" points="734.5866928100586,110.1366958618164 737.2766952514648,108.92670440673828 736.6667098999023,108.81670379638672 736.8666610717773,108.67670440673828 736.4767074584961,108.77669525146484 664.8766708374023,95.75670623779297 665.2166976928711,119.70670318603516 666.3866806030273,140.9767074584961 670.9366683959961,138.92670440673828 674.5766830444336,148.48670196533203 734.5866928100586,110.1366958618164 "/>
  <polygon stroke="null" id="svg_661" fill="#209cee" points="667.6466903686523,119.37671661376953 668.7267074584961,138.83670806884766 734.8467025756836,109.49669647216797 678.8366928100586,107.85669708251953 667.6466903686523,119.37671661376953 "/>
  <polygon stroke="null" id="svg_662" opacity="0.2" points="667.6466903686523,119.37671661376953 668.7267074584961,138.83670806884766 734.8467025756836,109.49669647216797 678.8366928100586,107.85669708251953 667.6466903686523,119.37671661376953 "/>
  <polygon stroke="null" id="svg_663" fill="#209cee" points="667.3266830444336,97.4767074584961 734.8467025756836,109.49669647216797 667.6466903686523,119.37671661376953 667.3266830444336,97.4767074584961 "/>
  <polygon stroke="null" id="svg_664" fill="#209cee" points="676.3666610717773,145.69670867919922 734.4666976928711,109.27669525146484 668.4566879272461,125.26671600341797 676.3666610717773,145.69670867919922 "/>
  <polygon stroke="null" id="svg_670" fill="url(#40600300-78d0-490f-be9f-5cfbcdd9ea47)" points="540.4366683959961,91.08670806884766 541.5766830444336,90.49669647216797 541.3166732788086,90.45670318603516 541.3966903686523,90.3967056274414 541.2267074584961,90.44670867919922 509.6866683959961,86.36670684814453 510.36666107177734,96.81670379638672 511.3567123413086,106.07669830322266 513.2967147827148,105.07669830322266 515.0967025756836,109.16669464111328 540.4366683959961,91.08670806884766 "/>
  <polygon stroke="null" id="svg_671" fill="#209cee" points="511.42671966552734,96.61670684814453 512.3366928100586,105.08670806884766 540.5367050170898,90.79669952392578 516.0566635131836,91.33670806884766 511.42671966552734,96.61670684814453 "/>
  <polygon stroke="null" id="svg_672" opacity="0.2" points="511.42671966552734,96.61670684814453 512.3366928100586,105.08670806884766 540.5367050170898,90.79669952392578 516.0566635131836,91.33670806884766 511.42671966552734,96.61670684814453 "/>
  <polygon stroke="null" id="svg_673" fill="#209cee" points="510.79671478271484,87.06670379638672 540.5367050170898,90.79669952392578 511.42671966552734,96.61670684814453 510.79671478271484,87.06670379638672 "/>
  <polygon stroke="null" id="svg_674" fill="#209cee" points="515.8166732788086,107.90670013427734 540.3666610717773,90.70670318603516 511.90670013427734,99.17670440673828 515.8166732788086,107.90670013427734 "/>
  <g stroke="null" id="svg_681">
   <polygon stroke="null" id="svg_675" fill="url(#468c021b-e5c9-4e7f-8066-86a3295c31c0)" points="522.9167098999023,203.42668914794922 525.8567123413086,203.6067123413086 525.3666610717773,203.2267074584961 525.6166610717773,203.2066879272461 525.2166976928711,203.1067123413086 468.01668548583984,158.11670684814453 457.11666107177734,179.43669891357422 448.2066879272461,198.79668426513672 453.1966781616211,199.0967025756836 451.9366683959961,209.25670623779297 522.9167098999023,203.42668914794922 "/>
   <polygon stroke="null" id="svg_676" fill="#209cee" points="459.41670989990234,180.2767105102539 451.28670501708984,197.98668670654297 523.4466781616211,202.9767074584961 474.7066879272461,175.33670806884766 459.41670989990234,180.2767105102539 "/>
   <polygon stroke="null" id="svg_677" opacity="0.2" points="459.41670989990234,180.2767105102539 451.28670501708984,197.98668670654297 523.4466781616211,202.9767074584961 474.7066879272461,175.33670806884766 459.41670989990234,180.2767105102539 "/>
   <polygon stroke="null" id="svg_678" fill="#209cee" points="469.38668060302734,160.7767105102539 523.4466781616211,202.9767074584961 459.41670989990234,180.2767105102539 469.38668060302734,160.7767105102539 "/>
   <polygon stroke="null" id="svg_679" fill="#209cee" points="454.8166732788086,207.62670135498047 523.2166976928711,202.6067123413086 457.37667083740234,185.86669158935547 454.8166732788086,207.62670135498047 "/>
   <polygon stroke="null" id="svg_680" fill="#209cee" points="469.38668060302734,160.7767105102539 523.4466781616211,202.9767074584961 459.41670989990234,180.2767105102539 469.38668060302734,160.7767105102539 "/>
  </g>
  <g stroke="null" id="svg_688">
   <polygon stroke="null" id="svg_682" fill="url(#468c021b-e5c9-4e7f-8066-86a3295c31c0)" points="357.2756881713867,246.90856170654297 360.21569061279297,247.09209442138672 359.7256393432617,246.7046127319336 359.9756393432617,246.6842269897461 359.57567596435547,246.58232879638672 302.3756637573242,200.71253204345703 291.4756393432617,222.44945526123047 282.56566619873047,242.18798065185547 287.55565643310547,242.49388885498047 286.29564666748047,252.85253143310547 357.2756881713867,246.90856170654297 "/>
   <polygon stroke="null" id="svg_683" fill="#209cee" points="293.7756881713867,223.30587005615234 285.6456832885742,241.36214447021484 357.80565643310547,246.44976043701172 309.06566619873047,218.26927947998047 293.7756881713867,223.30587005615234 "/>
   <polygon stroke="null" id="svg_684" opacity="0.2" points="293.7756881713867,223.30587005615234 285.6456832885742,241.36214447021484 357.80565643310547,246.44976043701172 309.06566619873047,218.26927947998047 293.7756881713867,223.30587005615234 "/>
   <polygon stroke="null" id="svg_685" fill="#209cee" points="303.7456588745117,203.4245376586914 357.80565643310547,246.44976043701172 293.7756881713867,223.30587005615234 303.7456588745117,203.4245376586914 "/>
   <polygon stroke="null" id="svg_686" fill="#209cee" points="289.17565155029297,251.1906967163086 357.57567596435547,246.0725326538086 291.7356491088867,229.00518035888672 289.17565155029297,251.1906967163086 "/>
   <polygon stroke="null" id="svg_687" fill="#209cee" points="303.7456588745117,203.4245376586914 357.80565643310547,246.44976043701172 293.7756881713867,223.30587005615234 303.7456588745117,203.4245376586914 "/>
  </g>
  <g stroke="null" id="svg_701" opacity="0.2">
   <polygon stroke="null" id="svg_696" fill="url(#8fce74bc-e786-4184-8196-133889bce917)" points="178.38903045654297,284.9332809448242 179.41902923583984,284.15328216552734 179.14904022216797,284.1632614135742 179.2290267944336,284.09325408935547 179.06902313232422,284.1732711791992 147.28902435302734,285.47325897216797 149.7290267944336,295.65328216552734 152.25902557373047,304.61327362060547 154.00902557373047,303.3032760620117 156.4790267944336,307.0332565307617 178.38903045654297,284.9332809448242 "/>
   <polygon stroke="null" id="svg_697" fill="#209cee" points="150.7290267944336,295.2832565307617 153.05904388427734,303.47325897216797 178.43904876708984,284.63326263427734 154.39904022216797,289.3032760620117 150.7290267944336,295.2832565307617 "/>
   <polygon stroke="null" id="svg_698" opacity="0.2" points="150.7290267944336,295.2832565307617 153.05904388427734,303.47325897216797 178.43904876708984,284.63326263427734 154.39904022216797,289.3032760620117 150.7290267944336,295.2832565307617 "/>
   <polygon stroke="null" id="svg_699" fill="#209cee" points="148.4990463256836,285.97325897216797 178.43904876708984,284.63326263427734 150.7290267944336,295.2832565307617 148.4990463256836,285.97325897216797 "/>
   <polygon stroke="null" id="svg_700" fill="#209cee" points="156.96904754638672,305.6732711791992 178.25902557373047,284.5732650756836 151.63903045654297,297.72325897216797 156.96904754638672,305.6732711791992 "/>
  </g>
  <g stroke="null" id="svg_707" opacity="0.2">
   <polygon stroke="null" id="svg_702" fill="url(#8fce74bc-e786-4184-8196-133889bce917)" points="76.02880096435547,200.15868377685547 77.05875396728516,199.3786849975586 76.78881072998047,199.38866424560547 76.8687973022461,199.31865692138672 76.7087631225586,199.39867401123047 44.92876434326172,200.6986312866211 47.36876678466797,210.87866973876953 49.89879608154297,219.8386459350586 51.648765563964844,218.52864837646484 54.118751525878906,222.25862884521484 76.02880096435547,200.15868377685547 "/>
   <polygon stroke="null" id="svg_703" fill="#209cee" points="48.36876678466797,210.50862884521484 50.698768615722656,218.6986312866211 76.07878875732422,199.8586654663086 52.038780212402344,204.5286636352539 48.36876678466797,210.50862884521484 "/>
   <polygon stroke="null" id="svg_704" opacity="0.2" points="48.36876678466797,210.50862884521484 50.698768615722656,218.6986312866211 76.07878875732422,199.8586654663086 52.038780212402344,204.5286636352539 48.36876678466797,210.50862884521484 "/>
   <polygon stroke="null" id="svg_705" fill="#209cee" points="46.138816833496094,201.19864654541016 76.07878875732422,199.8586654663086 48.36876678466797,210.50862884521484 46.138816833496094,201.19864654541016 "/>
   <polygon stroke="null" id="svg_706" fill="#209cee" points="54.608787536621094,220.89864349365234 75.89879608154297,199.79866790771484 49.278770446777344,212.94866180419922 54.608787536621094,220.89864349365234 "/>
  </g>
  <polygon stroke="null" id="svg_708" fill="#209cee" points="424.8467025756836,58.656700134277344 449.39669036865234,41.456703186035156 420.9366683959961,49.916709899902344 424.8467025756836,58.656700134277344 "/>
  <g stroke="null" id="svg_714">
   <polygon stroke="null" id="svg_709" fill="url(#39a84653-3cf1-4134-ab42-bf2b0e824fc4)" points="209.80669403076172,63.05670928955078 210.62670135498047,62.86670684814453 210.4566879272461,62.80670928955078 210.52669525146484,62.776710510253906 210.40670013427734,62.776710510253906 191.01668548583984,55.216697692871094 189.80669403076172,61.956703186035156 188.97667694091797,67.98670196533203 190.36669158935547,67.66670989990234 190.85668182373047,70.54669952392578 209.80669403076172,63.05670928955078 "/>
   <polygon stroke="null" id="svg_710" fill="#209cee" points="190.50667572021484,61.99669647216797 189.74669647216797,67.5167007446289 209.90670013427734,62.896705627441406 194.27669525146484,59.37670135498047 190.50667572021484,61.99669647216797 "/>
   <polygon stroke="null" id="svg_711" opacity="0.2" points="190.50667572021484,61.99669647216797 189.74669647216797,67.5167007446289 209.90670013427734,62.896705627441406 194.27669525146484,59.37670135498047 190.50667572021484,61.99669647216797 "/>
   <polygon stroke="null" id="svg_712" fill="#209cee" points="191.61669158935547,55.826698303222656 209.90670013427734,62.896705627441406 190.50667572021484,61.99669647216797 191.61669158935547,55.826698303222656 "/>
   <polygon stroke="null" id="svg_713" fill="#209cee" points="191.51668548583984,69.85669708251953 209.81670379638672,62.80670928955078 190.40670013427734,63.69670867919922 191.51668548583984,69.85669708251953 "/>
  </g>
  <g id="svg_720">
   <polygon stroke="null" id="svg_715" fill="url(#39a84653-3cf1-4134-ab42-bf2b0e824fc4)" points="209.80669403076172,63.05670928955078 210.62670135498047,62.86670684814453 210.4566879272461,62.80670928955078 210.52669525146484,62.776710510253906 210.40670013427734,62.776710510253906 191.01668548583984,55.216697692871094 189.80669403076172,61.956703186035156 188.97667694091797,67.98670196533203 190.36669158935547,67.66670989990234 190.85668182373047,70.54669952392578 209.80669403076172,63.05670928955078 "/>
   <polygon stroke="null" id="svg_716" fill="#209cee" points="190.50667572021484,61.99669647216797 189.74669647216797,67.5167007446289 209.90670013427734,62.896705627441406 194.27669525146484,59.37670135498047 190.50667572021484,61.99669647216797 "/>
   <polygon stroke="null" id="svg_717" opacity="0.2" points="190.50667572021484,61.99669647216797 189.74669647216797,67.5167007446289 209.90670013427734,62.896705627441406 194.27669525146484,59.37670135498047 190.50667572021484,61.99669647216797 "/>
   <polygon stroke="null" id="svg_718" fill="#209cee" points="191.61669158935547,55.826698303222656 209.90670013427734,62.896705627441406 190.50667572021484,61.99669647216797 191.61669158935547,55.826698303222656 "/>
   <polygon stroke="null" id="svg_719" fill="#209cee" points="191.51668548583984,69.85669708251953 209.81670379638672,62.80670928955078 190.40670013427734,63.69670867919922 191.51668548583984,69.85669708251953 "/>
  </g>
  <g transform="rotate(13.100449562072754 124.14943695068362,179.40354919433588) " stroke="null" id="svg_726">
   <polygon stroke="null" id="svg_721" fill="url(#39a84653-3cf1-4134-ab42-bf2b0e824fc4)" points="134.1544418334961,179.57857513427734 134.97444915771484,179.3885726928711 134.80443572998047,179.32857513427734 134.87444305419922,179.29857635498047 134.75444793701172,179.29857635498047 115.36443328857422,171.73856353759766 114.1544418334961,178.47856903076172 113.32442474365234,184.5085678100586 114.71443939208984,184.18856048583984 115.20442962646484,187.06855010986328 134.1544418334961,179.57857513427734 "/>
   <polygon stroke="null" id="svg_722" fill="#209cee" points="114.85442352294922,178.51856231689453 114.09444427490234,184.03856658935547 134.25444793701172,179.4185562133789 118.62444305419922,175.89855194091797 114.85442352294922,178.51856231689453 "/>
   <polygon stroke="null" id="svg_723" opacity="0.2" points="114.85442352294922,178.51856231689453 114.09444427490234,184.03856658935547 134.25444793701172,179.4185562133789 118.62444305419922,175.89855194091797 114.85442352294922,178.51856231689453 "/>
   <polygon stroke="null" id="svg_724" fill="#209cee" points="115.96443939208984,172.34856414794922 134.25444793701172,179.4185562133789 114.85442352294922,178.51856231689453 115.96443939208984,172.34856414794922 "/>
   <polygon stroke="null" id="svg_725" fill="#209cee" points="115.86443328857422,186.3785629272461 134.1644515991211,179.32857513427734 114.75444793701172,180.21855926513672 115.86443328857422,186.3785629272461 "/>
  </g>
  <g stroke="null" id="svg_732" opacity="0.2">
   <polygon transform="rotate(22.598770141601562 494.5946044921877,365.1957397460937) " opacity="0.2" stroke="null" id="svg_727" fill="url(#8fce74bc-e786-4184-8196-133889bce917)" points="513.4411644525615,351.87086839979565 514.732302147874,350.8931157142488 514.3938622064677,350.9056889564363 514.4941429681865,350.8179204017488 514.2935204095927,350.9181706458894 474.4569420404521,352.5477788001863 477.51550527287395,365.3085209876863 480.68689199162395,376.54002733534253 482.8805260248271,374.8979069740144 485.97668691349895,379.57350511854565 513.4411644525615,351.87086839979565 "/>
   <polygon transform="rotate(22.598770141601562 496.7454528808591,364.04074096679705) " opacity="0.2" stroke="null" id="svg_728" fill="#209cee" points="479.37799286842346,365.58258205652237 482.2986776828766,375.848847925663 514.1128866672516,352.2326675057411 483.9783651828766,358.0865493416786 479.37799286842346,365.58258205652237 "/>
   <polygon transform="rotate(22.598770141601562 496.7454528808591,364.04074096679705) " stroke="null" id="svg_729" opacity="0.04" points="479.37799286842346,365.58258205652237 482.2986776828766,375.848847925663 514.1128866672516,352.2326675057411 483.9783651828766,358.0865493416786 479.37799286842346,365.58258205652237 "/>
   <polygon transform="rotate(22.598770141601562 497.42764282226585,358.764678955078) " opacity="0.2" stroke="null" id="svg_730" fill="#209cee" points="478.662549495697,353.76940327882767 516.1927313804626,352.08971577882767 481.4578375816345,365.4396303296089 478.662549495697,353.76940327882767 "/>
   <polygon transform="rotate(22.598770141601562 496.652404785156,365.45480346679693) " opacity="0.2" stroke="null" id="svg_731" fill="#209cee" points="486.64938751235604,378.6794182062149 513.336643371731,352.23022997379303 479.9681741334498,368.7139641046524 486.64938751235604,378.6794182062149 "/>
  </g>
  <g id="svg_739">
   <polygon stroke="null" id="svg_733" fill="url(#6fc9dfcb-959f-45f5-9e30-981ed1ece4ee)" points="294.1966781616211,5.486701965332031 295.22667694091797,4.716705322265625 294.9566879272461,4.7266998291015625 295.02669525146484,4.646705627441406 294.87670135498047,4.7266998291015625 263.0866928100586,6.0366973876953125 265.52669525146484,16.216697692871094 268.0667037963867,25.166702270507812 269.8167037963867,23.85669708251953 272.27669525146484,27.586708068847656 294.1966781616211,5.486701965332031 "/>
   <polygon stroke="null" id="svg_734" fill="#209cee" points="266.53670501708984,15.836700439453125 268.86669158935547,24.036697387695312 294.24669647216797,5.186698913574219 270.2066879272461,9.856704711914062 266.53670501708984,15.836700439453125 "/>
   <polygon stroke="null" id="svg_735" opacity="0.2" points="266.53670501708984,15.836700439453125 268.86669158935547,24.036697387695312 294.24669647216797,5.186698913574219 270.2066879272461,9.856704711914062 266.53670501708984,15.836700439453125 "/>
   <polygon stroke="null" id="svg_736" fill="#209cee" points="264.3066940307617,6.526702880859375 294.24669647216797,5.186698913574219 266.53670501708984,15.836700439453125 264.3066940307617,6.526702880859375 "/>
   <polygon stroke="null" id="svg_737" fill="#209cee" points="272.77669525146484,26.226699829101562 294.0667037963867,5.126701354980469 267.4466781616211,18.276702880859375 272.77669525146484,26.226699829101562 "/>
   <polygon stroke="null" id="svg_738" fill="#209cee" points="272.77669525146484,26.226699829101562 294.0667037963867,5.126701354980469 267.4466781616211,18.276702880859375 272.77669525146484,26.226699829101562 "/>
  </g>
  <g id="svg_746">
   <polygon stroke="null" id="svg_740" fill="url(#6fc9dfcb-959f-45f5-9e30-981ed1ece4ee)" points="56.69812774658203,269.37401580810547 57.728126525878906,268.60399627685547 57.45813751220703,268.61400604248047 57.52814483642578,268.53401947021484 57.378150939941406,268.61400604248047 25.58814239501953,269.9240036010742 28.02814483642578,280.10399627685547 30.568153381347656,289.0540084838867 32.318153381347656,287.74398040771484 34.77814483642578,291.47399139404297 56.69812774658203,269.37401580810547 "/>
   <polygon stroke="null" id="svg_741" fill="#209cee" points="29.03815460205078,279.72399139404297 31.368141174316406,287.9240036010742 56.748146057128906,269.0739974975586 32.70813751220703,273.74401092529297 29.03815460205078,279.72399139404297 "/>
   <polygon stroke="null" id="svg_742" opacity="0.2" points="29.03815460205078,279.72399139404297 31.368141174316406,287.9240036010742 56.748146057128906,269.0739974975586 32.70813751220703,273.74401092529297 29.03815460205078,279.72399139404297 "/>
   <polygon stroke="null" id="svg_743" fill="#209cee" points="26.808143615722656,270.4139938354492 56.748146057128906,269.0739974975586 29.03815460205078,279.72399139404297 26.808143615722656,270.4139938354492 "/>
   <polygon stroke="null" id="svg_744" fill="#209cee" points="35.27814483642578,290.11400604248047 56.568153381347656,269.01399993896484 29.94812774658203,282.1639938354492 35.27814483642578,290.11400604248047 "/>
   <polygon stroke="null" id="svg_745" fill="#209cee" points="35.27814483642578,290.11400604248047 56.568153381347656,269.01399993896484 29.94812774658203,282.1639938354492 35.27814483642578,290.11400604248047 "/>
  </g>
  <g id="svg_753">
   <polygon stroke="null" id="svg_747" fill="url(#6fc9dfcb-959f-45f5-9e30-981ed1ece4ee)" points="201.14168548583984,230.48531341552734 202.17168426513672,229.71532440185547 201.90169525146484,229.72533416748047 201.9717025756836,229.64534759521484 201.82170867919922,229.72533416748047 170.03170013427734,231.03533172607422 172.4717025756836,241.21532440185547 175.01171112060547,250.16533660888672 176.76171112060547,248.85530853271484 179.2217025756836,252.5853500366211 201.14168548583984,230.48531341552734 "/>
   <polygon stroke="null" id="svg_748" fill="#209cee" points="173.4817123413086,240.83531951904297 175.81169891357422,249.03533172607422 201.19170379638672,230.1853256225586 177.15169525146484,234.85533905029297 173.4817123413086,240.83531951904297 "/>
   <polygon stroke="null" id="svg_749" opacity="0.2" points="173.4817123413086,240.83531951904297 175.81169891357422,249.03533172607422 201.19170379638672,230.1853256225586 177.15169525146484,234.85533905029297 173.4817123413086,240.83531951904297 "/>
   <polygon stroke="null" id="svg_750" fill="#209cee" points="171.25170135498047,231.52532196044922 201.19170379638672,230.1853256225586 173.4817123413086,240.83531951904297 171.25170135498047,231.52532196044922 "/>
   <polygon stroke="null" id="svg_751" fill="#209cee" points="179.7217025756836,251.22533416748047 201.01171112060547,230.12532806396484 174.39168548583984,243.27532196044922 179.7217025756836,251.22533416748047 "/>
   <polygon stroke="null" id="svg_752" fill="#209cee" points="179.7217025756836,251.22533416748047 201.01171112060547,230.12532806396484 174.39168548583984,243.27532196044922 179.7217025756836,251.22533416748047 "/>
  </g>
  <g stroke="null" id="svg_1464">
   <polygon stroke="null" id="svg_1458" fill="url(#468c021b-e5c9-4e7f-8066-86a3295c31c0)" points="92.98635864257812,504.054967880249 95.92636108398438,504.2385005950928 95.43630981445312,503.85101890563965 95.68630981445312,503.830602645874 95.28634643554688,503.7287349700928 38.086334228515625,457.858922958374 27.186309814453125,479.5958309173584 18.276336669921875,499.3343868255615 23.266326904296875,499.6402950286865 22.006317138671875,509.9989376068115 92.98635864257812,504.054967880249 "/>
   <polygon stroke="null" id="svg_1459" fill="#209cee" points="29.486358642578125,480.4522457122803 21.356353759765625,498.5085201263428 93.51632690429688,503.59613609313965 44.776336669921875,475.4156551361084 29.486358642578125,480.4522457122803 "/>
   <polygon stroke="null" id="svg_1460" opacity="0.2" points="29.486358642578125,480.4522457122803 21.356353759765625,498.5085201263428 93.51632690429688,503.59613609313965 44.776336669921875,475.4156551361084 29.486358642578125,480.4522457122803 "/>
   <polygon stroke="null" id="svg_1461" fill="#209cee" points="39.456329345703125,460.5709285736084 93.51632690429688,503.59613609313965 29.486358642578125,480.4522457122803 39.456329345703125,460.5709285736084 "/>
   <polygon stroke="null" id="svg_1462" fill="#209cee" points="24.886322021484375,508.3370723724365 93.28634643554688,503.2189083099365 27.446319580078125,486.1515865325928 24.886322021484375,508.3370723724365 "/>
   <polygon stroke="null" id="svg_1463" fill="#209cee" points="39.456329345703125,460.5709285736084 93.51632690429688,503.59613609313965 29.486358642578125,480.4522457122803 39.456329345703125,460.5709285736084 "/>
  </g>
  <g transform="rotate(22.598770141601562 64.56524658203122,366.8985900878906) " stroke="null" id="svg_1470" opacity="0.2">
   <polygon stroke="null" id="svg_1465" fill="url(#8fce74bc-e786-4184-8196-133889bce917)" points="79.6002197265625,356.2686004638672 80.6302490234375,355.48863220214844 80.3602294921875,355.49864196777344 80.44024658203125,355.4286346435547 80.28021240234375,355.5085906982422 48.500244140625,356.8086395263672 50.94024658203125,366.98863220214844 53.470245361328125,375.9486541748047 55.22021484375,374.6385955810547 57.690216064453125,378.36863708496094 79.6002197265625,356.2686004638672 "/>
   <polygon stroke="null" id="svg_1466" fill="#209cee" points="51.94024658203125,366.61863708496094 54.270233154296875,374.8086395263672 79.6502685546875,355.9686737060547 55.6102294921875,360.6385955810547 51.94024658203125,366.61863708496094 "/>
   <polygon stroke="null" id="svg_1467" opacity="0.2" points="51.94024658203125,366.61863708496094 54.270233154296875,374.8086395263672 79.6502685546875,355.9686737060547 55.6102294921875,360.6385955810547 51.94024658203125,366.61863708496094 "/>
   <polygon stroke="null" id="svg_1468" fill="#209cee" points="49.71026611328125,357.3086395263672 79.6502685546875,355.9686737060547 51.94024658203125,366.61863708496094 49.71026611328125,357.3086395263672 "/>
   <polygon stroke="null" id="svg_1469" fill="#209cee" points="58.18023681640625,377.00865173339844 79.47024536132812,355.9086151123047 52.850250244140625,369.0586395263672 58.18023681640625,377.00865173339844 "/>
  </g>
  <g id="svg_1471">
   <polygon stroke="null" id="svg_650" fill="url(#2bba3003-1a7c-40bc-8007-601995116a1b)" points="763.3666610717773,373.72667694091797 769.5166854858398,373.9266891479492 768.4767074584961,373.15670013427734 768.9767074584961,373.0967025756836 768.1466903686523,372.9166793823242 645.9067001342773,282.62670135498047 624.5066757202148,327.8266830444336 607.1366806030273,368.78670501708984 617.5566635131836,369.11669158935547 615.5766830444336,390.38668060302734 763.3666610717773,373.72667694091797 "/>
   <polygon stroke="null" id="svg_651" fill="#209cee" points="629.3666610717773,329.4366989135742 613.5066757202148,366.9166793823242 764.4466781616211,372.76668548583984 660.9566879272461,318.14669036865234 629.3666610717773,329.4366989135742 "/>
   <polygon stroke="null" id="svg_652" opacity="0.2" points="629.3666610717773,329.4366989135742 613.5066757202148,366.9166793823242 764.4466781616211,372.76668548583984 660.9566879272461,318.14669036865234 629.3666610717773,329.4366989135742 "/>
   <polygon stroke="null" id="svg_653" fill="#209cee" points="648.9366683959961,288.0967025756836 764.4466781616211,372.76668548583984 629.3666610717773,329.4366989135742 648.9366683959961,288.0967025756836 "/>
   <polygon stroke="null" id="svg_654" fill="#209cee" points="621.4966659545898,386.8066940307617 763.9366683959961,371.99669647216797 625.4666976928711,341.23668670654297 621.4966659545898,386.8066940307617 "/>
  </g>
  <g transform="rotate(-6.754256725311279 270.463806152345,388.8883972167967) " id="svg_1477">
   <polygon stroke="null" id="svg_1472" fill="url(#2bba3003-1a7c-40bc-8007-601995116a1b)" points="345.5037841796875,426.1083679199219 351.65380859375,426.3083801269531 350.61383056640625,425.5383605957031 351.11383056640625,425.4784240722656 350.2838134765625,425.2983703613281 228.0438232421875,335.0083923339844 206.643798828125,380.2083435058594 189.2738037109375,421.1683654785156 199.69378662109375,421.4983825683594 197.71380615234375,442.7684020996094 345.5037841796875,426.1083679199219 "/>
   <polygon stroke="null" id="svg_1473" fill="#209cee" points="211.5037841796875,381.8183898925781 195.643798828125,419.2983703613281 346.58380126953125,425.1483459472656 243.09381103515625,370.5283508300781 211.5037841796875,381.8183898925781 "/>
   <polygon stroke="null" id="svg_1474" opacity="0.2" points="211.5037841796875,381.8183898925781 195.643798828125,419.2983703613281 346.58380126953125,425.1483459472656 243.09381103515625,370.5283508300781 211.5037841796875,381.8183898925781 "/>
   <polygon stroke="null" id="svg_1475" fill="#209cee" points="231.07379150390625,340.4783935546875 346.58380126953125,425.1483459472656 211.5037841796875,381.8183898925781 231.07379150390625,340.4783935546875 "/>
   <polygon stroke="null" id="svg_1476" fill="#209cee" points="203.6337890625,439.1883850097656 346.07379150390625,424.3783874511719 207.60382080078125,393.6183776855469 203.6337890625,439.1883850097656 "/>
  </g>
  <g transform="rotate(-28.227807998657227 904.996337890625,541.2714233398435) " id="svg_1483">
   <polygon stroke="null" id="svg_1478" fill="url(#2bba3003-1a7c-40bc-8007-601995116a1b)" points="980.0363159179688,578.491415977478 986.1863403320312,578.6914281845093 985.1463012695312,577.9214086532593 985.6463623046875,577.8614721298218 984.8163452148438,577.6814184188843 862.5762939453125,487.3914403915405 841.1763305664062,532.5913915634155 823.8063354492188,573.5514135360718 834.2262573242188,573.8814306259155 832.246337890625,595.1514501571655 980.0363159179688,578.491415977478 "/>
   <polygon stroke="null" id="svg_1479" fill="#209cee" points="846.0363159179688,534.2014379501343 830.1763305664062,571.6814184188843 981.1162719726562,577.5313940048218 877.6263427734375,522.9113988876343 846.0363159179688,534.2014379501343 "/>
   <polygon stroke="null" id="svg_1480" opacity="0.2" points="846.0363159179688,534.2014379501343 830.1763305664062,571.6814184188843 981.1162719726562,577.5313940048218 877.6263427734375,522.9113988876343 846.0363159179688,534.2014379501343 "/>
   <polygon stroke="null" id="svg_1481" fill="#209cee" points="865.6063232421875,492.86144161224365 981.1162719726562,577.5313940048218 846.0363159179688,534.2014379501343 865.6063232421875,492.86144161224365 "/>
   <polygon stroke="null" id="svg_1482" fill="#209cee" points="838.166259765625,591.5714330673218 980.6063232421875,576.761435508728 842.1363525390625,546.001425743103 838.166259765625,591.5714330673218 "/>
  </g>
  <g transform="rotate(-6.754256725311279 270.463806152345,388.8883972167967) " id="svg_1489">
   <polygon stroke="null" id="svg_1484" fill="url(#2bba3003-1a7c-40bc-8007-601995116a1b)" points="345.5037841796875,426.1083679199219 351.65380859375,426.3083801269531 350.61383056640625,425.5383605957031 351.11383056640625,425.4784240722656 350.2838134765625,425.2983703613281 228.0438232421875,335.0083923339844 206.643798828125,380.2083435058594 189.2738037109375,421.1683654785156 199.69378662109375,421.4983825683594 197.71380615234375,442.7684020996094 345.5037841796875,426.1083679199219 "/>
   <polygon stroke="null" id="svg_1485" fill="#209cee" points="211.5037841796875,381.8183898925781 195.643798828125,419.2983703613281 346.58380126953125,425.1483459472656 243.09381103515625,370.5283508300781 211.5037841796875,381.8183898925781 "/>
   <polygon stroke="null" id="svg_1486" opacity="0.2" points="211.5037841796875,381.8183898925781 195.643798828125,419.2983703613281 346.58380126953125,425.1483459472656 243.09381103515625,370.5283508300781 211.5037841796875,381.8183898925781 "/>
   <polygon stroke="null" id="svg_1487" fill="#209cee" points="231.07379150390625,340.4783935546875 346.58380126953125,425.1483459472656 211.5037841796875,381.8183898925781 231.07379150390625,340.4783935546875 "/>
   <polygon stroke="null" id="svg_1488" fill="#209cee" points="203.6337890625,439.1883850097656 346.07379150390625,424.3783874511719 207.60382080078125,393.6183776855469 203.6337890625,439.1883850097656 "/>
  </g>
  <g transform="rotate(-29.783363342285156 491.7936401367187,503.92919921874994) " stroke="null" id="svg_1496">
   <polygon stroke="null" id="svg_1490" fill="url(#468c021b-e5c9-4e7f-8066-86a3295c31c0)" points="527.6786570549011,523.669189453125 530.6186594963074,523.8492126464844 530.1286082267761,523.4692077636719 530.3786082267761,523.4491729736328 529.9786448478699,523.3491973876953 472.77866315841675,478.35919189453125 461.87863874435425,499.67919921875 452.968665599823,519.0391693115234 457.958655834198,519.3391876220703 456.698646068573,529.4992065429688 527.6786570549011,523.669189453125 "/>
   <polygon stroke="null" id="svg_1491" fill="#209cee" points="464.17868757247925,500.5192108154297 456.04868268966675,518.2291870117188 528.2086253166199,523.2192077636719 479.468665599823,495.5791931152344 464.17868757247925,500.5192108154297 "/>
   <polygon stroke="null" id="svg_1492" opacity="0.2" points="464.17868757247925,500.5192108154297 456.04868268966675,518.2291870117188 528.2086253166199,523.2192077636719 479.468665599823,495.5791931152344 464.17868757247925,500.5192108154297 "/>
   <polygon stroke="null" id="svg_1493" fill="#209cee" points="474.14865827560425,481.0191955566406 528.2086253166199,523.2192077636719 464.17868757247925,500.5192108154297 474.14865827560425,481.0191955566406 "/>
   <polygon stroke="null" id="svg_1494" fill="#209cee" points="459.5786509513855,527.8692016601562 527.9786448478699,522.8492126464844 462.13864850997925,506.1091766357422 459.5786509513855,527.8692016601562 "/>
   <polygon stroke="null" id="svg_1495" fill="#209cee" points="474.14865827560425,481.0191955566406 528.2086253166199,523.2192077636719 464.17868757247925,500.5192108154297 474.14865827560425,481.0191955566406 "/>
  </g>
  <g id="svg_1502">
   <polygon stroke="null" id="svg_1497" fill="url(#39a84653-3cf1-4134-ab42-bf2b0e824fc4)" points="433.6192932128906,407.10904693603516 434.4393005371094,406.9190444946289 434.269287109375,406.85904693603516 434.3392791748047,406.8290481567383 434.21929931640625,406.8290481567383 414.82928466796875,399.26903533935547 413.6192932128906,406.00904083251953 412.7892761230469,412.0390396118164 414.1792907714844,411.7190475463867 414.6692657470703,414.59903717041016 433.6192932128906,407.10904693603516 "/>
   <polygon stroke="null" id="svg_1498" fill="#209cee" points="414.3192596435547,406.04903411865234 413.5592956542969,411.5690383911133 433.71929931640625,406.9490432739258 418.08929443359375,403.42903900146484 414.3192596435547,406.04903411865234 "/>
   <polygon stroke="null" id="svg_1499" opacity="0.2" points="414.3192596435547,406.04903411865234 413.5592956542969,411.5690383911133 433.71929931640625,406.9490432739258 418.08929443359375,403.42903900146484 414.3192596435547,406.04903411865234 "/>
   <polygon stroke="null" id="svg_1500" fill="#209cee" points="415.4292755126953,399.87903594970703 433.71929931640625,406.9490432739258 414.3192596435547,406.04903411865234 415.4292755126953,399.87903594970703 "/>
   <polygon stroke="null" id="svg_1501" fill="#209cee" points="415.3292694091797,413.9090347290039 433.6293029785156,406.85904693603516 414.21929931640625,407.7490463256836 415.3292694091797,413.9090347290039 "/>
  </g>
  <g transform="rotate(3.751185178756714 146.70922851562818,539.52001953125) " stroke="null" id="svg_1508" opacity="0.2">
   <polygon stroke="null" id="svg_1503" fill="url(#8fce74bc-e786-4184-8196-133889bce917)" points="161.74420166015625,528.8900451660156 162.77423095703125,528.1100463867188 162.50421142578125,528.1200561523438 162.584228515625,528.050048828125 162.4241943359375,528.1300354003906 130.64422607421875,529.4300537109375 133.084228515625,539.6100463867188 135.61422729492188,548.570068359375 137.36419677734375,547.2600402832031 139.83419799804688,550.9900512695312 161.74420166015625,528.8900451660156 "/>
   <polygon stroke="null" id="svg_1504" fill="#209cee" points="134.084228515625,539.2400512695312 136.41421508789062,547.4300537109375 161.79425048828125,528.5900573730469 137.75421142578125,533.2600402832031 134.084228515625,539.2400512695312 "/>
   <polygon stroke="null" id="svg_1505" opacity="0.2" points="134.084228515625,539.2400512695312 136.41421508789062,547.4300537109375 161.79425048828125,528.5900573730469 137.75421142578125,533.2600402832031 134.084228515625,539.2400512695312 "/>
   <polygon stroke="null" id="svg_1506" fill="#209cee" points="131.854248046875,529.9300537109375 161.79425048828125,528.5900573730469 134.084228515625,539.2400512695312 131.854248046875,529.9300537109375 "/>
   <polygon stroke="null" id="svg_1507" fill="#209cee" points="140.32421875,549.6300659179688 161.61422729492188,528.530029296875 134.99423217773438,541.6800537109375 140.32421875,549.6300659179688 "/>
  </g>
  <g id="svg_1511">
   <polygon stroke="null" id="svg_665" fill="url(#e7fad314-c36a-43e5-85d6-709074a63ec6)" points="350.1966781616211,105.37670135498047 351.3467025756836,104.78670501708984 351.0766830444336,104.75670623779297 351.15670013427734,104.69670867919922 350.98668670654297,104.74669647216797 319.4466781616211,100.66669464111328 320.13668060302734,111.1067123413086 321.11669158935547,120.36670684814453 323.0566940307617,119.36670684814453 324.85668182373047,123.46671295166016 350.1966781616211,105.37670135498047 "/>
   <polygon stroke="null" id="svg_666" fill="#209cee" points="321.1866989135742,110.91669464111328 322.0967025756836,119.37671661376953 350.2966842651367,105.0967025756836 325.8167037963867,105.6366958618164 321.1866989135742,110.91669464111328 "/>
   <polygon stroke="null" id="svg_667" opacity="0.2" points="321.1866989135742,110.91669464111328 322.0967025756836,119.37671661376953 350.2966842651367,105.0967025756836 325.8167037963867,105.6366958618164 321.1866989135742,110.91669464111328 "/>
   <polygon stroke="null" id="svg_668" fill="#209cee" points="320.5566940307617,101.35669708251953 350.2966842651367,105.0967025756836 321.1866989135742,110.91669464111328 320.5566940307617,101.35669708251953 "/>
   <polygon stroke="null" id="svg_669" fill="#209cee" points="325.5766830444336,122.20670318603516 350.12670135498047,105.00670623779297 321.6666793823242,113.46671295166016 325.5766830444336,122.20670318603516 "/>
   <polygon stroke="null" id="svg_1509" fill="#209cee" points="325.5766830444336,122.20670318603516 350.12670135498047,105.00670623779297 321.6666793823242,113.46671295166016 325.5766830444336,122.20670318603516 "/>
  </g>
  <g id="svg_1518">
   <polygon stroke="null" id="svg_1512" fill="url(#e7fad314-c36a-43e5-85d6-709074a63ec6)" points="300.1959991455078,553.0018844604492 301.3460235595703,552.4118881225586 301.0760040283203,552.3818893432617 301.15602111816406,552.321891784668 300.9860076904297,552.3718795776367 269.4459991455078,548.291877746582 270.13600158691406,558.7318954467773 271.1160125732422,567.9918899536133 273.05601501464844,566.9918899536133 274.8560028076172,571.0918960571289 300.1959991455078,553.0018844604492 "/>
   <polygon stroke="null" id="svg_1513" fill="#209cee" points="271.18601989746094,558.541877746582 272.0960235595703,567.0018997192383 300.29600524902344,552.7218856811523 275.81602478027344,553.2618789672852 271.18601989746094,558.541877746582 "/>
   <polygon stroke="null" id="svg_1514" opacity="0.2" points="271.18601989746094,558.541877746582 272.0960235595703,567.0018997192383 300.29600524902344,552.7218856811523 275.81602478027344,553.2618789672852 271.18601989746094,558.541877746582 "/>
   <polygon stroke="null" id="svg_1515" fill="#209cee" points="270.55601501464844,548.9818801879883 300.29600524902344,552.7218856811523 271.18601989746094,558.541877746582 270.55601501464844,548.9818801879883 "/>
   <polygon stroke="null" id="svg_1516" fill="#209cee" points="275.5760040283203,569.8318862915039 300.1260223388672,552.6318893432617 271.66600036621094,561.0918960571289 275.5760040283203,569.8318862915039 "/>
   <polygon stroke="null" id="svg_1517" fill="#209cee" points="275.5760040283203,569.8318862915039 300.1260223388672,552.6318893432617 271.66600036621094,561.0918960571289 275.5760040283203,569.8318862915039 "/>
  </g>
  <g stroke="null" id="svg_1524" opacity="0.3">
   <polygon stroke="null" id="svg_1519" fill="url(#ec4cef39-2f7d-4633-a76d-8aa6eb49d472)" points="792.4374084472656,188.11088037490845 794.4777526855469,186.57058191299438 793.9377136230469,186.59054040908813 794.0976257324219,186.4304757118225 793.7776184082031,186.59054040908813 730.2044982910156,189.21108484268188 735.0854187011719,209.57532739639282 740.1665344238281,227.49903345108032 743.6472473144531,224.8585000038147 748.5882263183594,232.34003686904907 792.4374084472656,188.11088037490845 "/>
   <polygon stroke="null" id="svg_1520" fill="#209cee" points="737.0857849121094,208.81519556045532 741.7467956542969,225.2185616493225 792.5373840332031,187.51075220108032 744.4273986816406,196.85268640518188 737.0857849121094,208.81519556045532 "/>
   <polygon stroke="null" id="svg_1521" opacity="0.2" points="737.0857849121094,208.81519556045532 741.7467956542969,225.2185616493225 792.5373840332031,187.51075220108032 744.4273986816406,196.85268640518188 737.0857849121094,208.81519556045532 "/>
   <polygon stroke="null" id="svg_1522" fill="#209cee" points="732.6249084472656,190.19129419326782 792.5373840332031,187.51075220108032 737.0857849121094,208.81519556045532 732.6249084472656,190.19129419326782 "/>
   <polygon stroke="null" id="svg_1523" fill="#209cee" points="749.5685119628906,229.59945154190063 792.1573181152344,187.41068506240845 738.9062805175781,213.6961464881897 749.5685119628906,229.59945154190063 "/>
  </g>
  <g stroke="null" id="svg_1530" opacity="0.3">
   <polygon stroke="null" id="svg_1525" fill="url(#ec4cef39-2f7d-4633-a76d-8aa6eb49d472)" points="837.600559789731,426.2715795935146 839.7164825001091,424.6742231843964 839.1564486213465,424.69492531850847 839.3223189313576,424.52899169921875 838.9903250742209,424.69492531850847 773.0621948242188,427.41260272226646 778.1240248878166,448.5311852691666 783.3933827667643,467.1188527842678 787.0030245971429,464.3805365556764 792.1268977537984,472.1391519610843 837.600559789731,426.2715795935146 "/>
   <polygon stroke="null" id="svg_1526" fill="#209cee" points="780.1985433299706,447.7428581316635 785.032080134828,464.7539346810372 837.70413376957,425.6492493845799 787.8121171780367,435.33727836552134 780.1985433299706,447.7428581316635 "/>
   <polygon stroke="null" id="svg_1527" opacity="0.2" points="780.1985433299706,447.7428581316635 785.032080134828,464.7539346810372 837.70413376957,425.6492493845799 787.8121171780367,435.33727836552134 780.1985433299706,447.7428581316635 "/>
   <polygon stroke="null" id="svg_1528" fill="#209cee" points="775.5722811033484,428.4290964999527 837.70413376957,425.6492493845799 780.1985433299706,447.7428581316635 775.5722811033484,428.4290964999527 "/>
   <polygon stroke="null" id="svg_1529" fill="#209cee" points="793.1435181500419,469.297071824818 837.3100968193758,425.545485476905 782.0864260187227,452.8046881952614 793.1435181500419,469.297071824818 "/>
  </g>
  <g stroke="null" transform="rotate(7.504751682281494 530.8312988281251,445.84625244140665) " id="svg_1536" opacity="0.2">
   <polygon stroke="null" id="svg_1531" fill="url(#8fce74bc-e786-4184-8196-133889bce917)" points="559.0162589550018,425.9190318584442 560.9471061229706,424.45681262016296 560.4410026073456,424.47561144828796 560.5909659862518,424.34435534477234 560.2909171581268,424.4942271709442 500.71547770500183,426.93129992485046 505.2895438671112,446.0149791240692 510.0323112010956,462.8115794658661 513.3128898143768,460.35586047172546 517.9432609081268,467.34813952445984 559.0162589550018,425.9190318584442 "/>
   <polygon stroke="null" id="svg_1532" fill="#209cee" points="507.1641471385956,445.3213450908661 511.53200602531433,460.67455554008484 559.1100699901581,425.3566234111786 514.0440299510956,434.11107897758484 507.1641471385956,445.3213450908661 "/>
   <polygon stroke="null" id="svg_1533" opacity="0.2" points="507.1641471385956,445.3213450908661 511.53200602531433,460.67455554008484 559.1100699901581,425.3566234111786 514.0440299510956,434.11107897758484 507.1641471385956,445.3213450908661 "/>
   <polygon stroke="null" id="svg_1534" fill="#209cee" points="502.98381876945496,427.8685863018036 559.1100699901581,425.3566234111786 507.1641471385956,445.3213450908661 502.98381876945496,427.8685863018036 "/>
   <polygon stroke="null" id="svg_1535" fill="#209cee" points="518.8618400096893,464.7987620830536 558.7725455760956,425.2440745830536 508.8700797557831,449.8954722881317 518.8618400096893,464.7987620830536 "/>
  </g>
  <g id="svg_1543">
   <polygon stroke="null" id="svg_1537" fill="url(#e7fad314-c36a-43e5-85d6-709074a63ec6)" points="834.7271423339844,67.28094100952148 835.8771667480469,66.69094467163086 835.6071472167969,66.66094589233398 835.6871643066406,66.60094833374023 835.5171508789062,66.65093612670898 803.9771423339844,62.5709342956543 804.6671447753906,73.01095199584961 805.6471557617188,82.27094650268555 807.587158203125,81.27094650268555 809.3871459960938,85.37095260620117 834.7271423339844,67.28094100952148 "/>
   <polygon stroke="null" id="svg_1538" fill="#209cee" points="805.7171630859375,72.8209342956543 806.6271667480469,81.28095626831055 834.8271484375,67.00094223022461 810.34716796875,67.54093551635742 805.7171630859375,72.8209342956543 "/>
   <polygon stroke="null" id="svg_1539" opacity="0.2" points="805.7171630859375,72.8209342956543 806.6271667480469,81.28095626831055 834.8271484375,67.00094223022461 810.34716796875,67.54093551635742 805.7171630859375,72.8209342956543 "/>
   <polygon stroke="null" id="svg_1540" fill="#209cee" points="805.087158203125,63.26093673706055 834.8271484375,67.00094223022461 805.7171630859375,72.8209342956543 805.087158203125,63.26093673706055 "/>
   <polygon stroke="null" id="svg_1541" fill="#209cee" points="810.1071472167969,84.11094284057617 834.6571655273438,66.91094589233398 806.1971435546875,75.37095260620117 810.1071472167969,84.11094284057617 "/>
   <polygon stroke="null" id="svg_1542" fill="#209cee" points="810.1071472167969,84.11094284057617 834.6571655273438,66.91094589233398 806.1971435546875,75.37095260620117 810.1071472167969,84.11094284057617 "/>
  </g>
  <g transform="rotate(-26.165435791015625 898.942138671875,121.78109741210945) " stroke="null" id="svg_1550">
   <polygon stroke="null" id="svg_1544" fill="url(#468c021b-e5c9-4e7f-8066-86a3295c31c0)" points="934.8271179199219,141.5210838317871 937.7671203613281,141.70110702514648 937.2770690917969,141.32110214233398 937.5270690917969,141.30106735229492 937.1271057128906,141.20109176635742 879.9271240234375,96.21108627319336 869.027099609375,117.53109359741211 860.1171264648438,136.89106369018555 865.1071166992188,137.19108200073242 863.8471069335938,147.35110092163086 934.8271179199219,141.5210838317871 "/>
   <polygon stroke="null" id="svg_1545" fill="#209cee" points="871.3271484375,118.3711051940918 863.1971435546875,136.08108139038086 935.3570861816406,141.07110214233398 886.6171264648438,113.43108749389648 871.3271484375,118.3711051940918 "/>
   <polygon stroke="null" id="svg_1546" opacity="0.2" points="871.3271484375,118.3711051940918 863.1971435546875,136.08108139038086 935.3570861816406,141.07110214233398 886.6171264648438,113.43108749389648 871.3271484375,118.3711051940918 "/>
   <polygon stroke="null" id="svg_1547" fill="#209cee" points="881.297119140625,98.87108993530273 935.3570861816406,141.07110214233398 871.3271484375,118.3711051940918 881.297119140625,98.87108993530273 "/>
   <polygon stroke="null" id="svg_1548" fill="#209cee" points="866.7271118164062,145.72109603881836 935.1271057128906,140.70110702514648 869.287109375,123.9610710144043 866.7271118164062,145.72109603881836 "/>
   <polygon stroke="null" id="svg_1549" fill="#209cee" points="881.297119140625,98.87108993530273 935.3570861816406,141.07110214233398 871.3271484375,118.3711051940918 881.297119140625,98.87108993530273 "/>
  </g>
  <g transform="rotate(-17.689268112182617 669.0145263671876,514.8817138671877) " stroke="null" id="svg_1557">
   <polygon stroke="null" id="svg_1551" fill="url(#468c021b-e5c9-4e7f-8066-86a3295c31c0)" points="704.8995056152344,535.0077514648438 707.8395080566406,535.1912841796875 707.3494567871094,534.8038024902344 707.5994567871094,534.7834167480469 707.1994934082031,534.6815185546875 649.9994812011719,488.81170654296875 639.0994567871094,510.54864501953125 630.1894836425781,530.2871704101562 635.1794738769531,530.5930786132812 633.9194641113281,540.9517211914062 704.8995056152344,535.0077514648438 "/>
   <polygon stroke="null" id="svg_1552" fill="#209cee" points="641.3995056152344,511.4050598144531 633.2695007324219,529.4613189697266 705.4294738769531,534.5489349365234 656.6894836425781,506.3684539794922 641.3995056152344,511.4050598144531 "/>
   <polygon stroke="null" id="svg_1553" opacity="0.2" points="641.3995056152344,511.4050598144531 633.2695007324219,529.4613189697266 705.4294738769531,534.5489349365234 656.6894836425781,506.3684539794922 641.3995056152344,511.4050598144531 "/>
   <polygon stroke="null" id="svg_1554" fill="#209cee" points="651.3694763183594,491.5237274169922 705.4294738769531,534.5489349365234 641.3995056152344,511.4050598144531 651.3694763183594,491.5237274169922 "/>
   <polygon stroke="null" id="svg_1555" fill="#209cee" points="636.7994689941406,539.2898864746094 705.1994934082031,534.1717224121094 639.3594665527344,517.1043701171875 636.7994689941406,539.2898864746094 "/>
   <polygon stroke="null" id="svg_1556" fill="#209cee" points="651.3694763183594,491.5237274169922 705.4294738769531,534.5489349365234 641.3995056152344,511.4050598144531 651.3694763183594,491.5237274169922 "/>
  </g>
  <g stroke="null" id="svg_1563" opacity="0.3">
   <polygon stroke="null" id="svg_1558" fill="url(#a0c3a354-3d2b-4575-9c71-49ce4224960a)" points="994.4525756835938,492.263916015625 995.4826049804688,491.4839172363281 995.2125854492188,491.4939270019531 995.2926025390625,491.4239196777344 995.132568359375,491.4939270019531 963.3526000976562,492.8039245605469 965.7926025390625,502.9839172363281 968.3225708007812,511.9439392089844 970.0725708007812,510.6339111328125 972.5325927734375,514.3639221191406 994.4525756835938,492.263916015625 "/>
   <polygon stroke="null" id="svg_1559" fill="#209cee" points="966.7926025390625,502.6139221191406 969.1226196289062,510.8039245605469 994.5026245117188,491.9539031982422 970.4625854492188,496.6239318847656 966.7926025390625,502.6139221191406 "/>
   <polygon stroke="null" id="svg_1560" opacity="0.2" points="966.7926025390625,502.6139221191406 969.1226196289062,510.8039245605469 994.5026245117188,491.9539031982422 970.4625854492188,496.6239318847656 966.7926025390625,502.6139221191406 "/>
   <polygon stroke="null" id="svg_1561" fill="#209cee" points="964.5626220703125,493.3039245605469 994.5026245117188,491.9539031982422 966.7926025390625,502.6139221191406 964.5626220703125,493.3039245605469 "/>
   <polygon stroke="null" id="svg_1562" fill="#209cee" points="973.0325927734375,513.0039367675781 994.3225708007812,491.9039306640625 967.7025756835938,505.0438995361328 973.0325927734375,513.0039367675781 "/>
  </g>
  <g stroke="null" id="svg_1570">
   <polygon stroke="null" id="svg_1564" fill="url(#468c021b-e5c9-4e7f-8066-86a3295c31c0)" points="956.2559814453125,367.71466064453125 959.1959838867188,367.8946838378906 958.7059326171875,367.5146789550781 958.9559326171875,367.49464416503906 958.5559692382812,367.39466857910156 901.3559875488281,322.4046630859375 890.4559631347656,343.72467041015625 881.5459899902344,363.0846405029297 886.5359802246094,363.38465881347656 885.2759704589844,373.544677734375 956.2559814453125,367.71466064453125 "/>
   <polygon stroke="null" id="svg_1565" fill="#209cee" points="892.7560119628906,344.56468200683594 884.6260070800781,362.274658203125 956.7859497070312,367.2646789550781 908.0459899902344,339.6246643066406 892.7560119628906,344.56468200683594 "/>
   <polygon stroke="null" id="svg_1566" opacity="0.2" points="892.7560119628906,344.56468200683594 884.6260070800781,362.274658203125 956.7859497070312,367.2646789550781 908.0459899902344,339.6246643066406 892.7560119628906,344.56468200683594 "/>
   <polygon stroke="null" id="svg_1567" fill="#209cee" points="902.7259826660156,325.0646667480469 956.7859497070312,367.2646789550781 892.7560119628906,344.56468200683594 902.7259826660156,325.0646667480469 "/>
   <polygon stroke="null" id="svg_1568" fill="#209cee" points="888.1559753417969,371.9146728515625 956.5559692382812,366.8946838378906 890.7159729003906,350.15464782714844 888.1559753417969,371.9146728515625 "/>
   <polygon stroke="null" id="svg_1569" fill="#209cee" points="902.7259826660156,325.0646667480469 956.7859497070312,367.2646789550781 892.7560119628906,344.56468200683594 902.7259826660156,325.0646667480469 "/>
  </g>
  <g id="svg_1573">
   <polygon stroke="null" id="svg_655" fill="url(#7d984b9b-79bf-4ccd-9c01-273bb4695a47)" points="658.7166976928711,29.86670684814453 661.3966903686523,28.646705627441406 660.7867050170898,28.536697387695312 660.9966659545898,28.406700134277344 660.5967025756836,28.50670623779297 588.9966659545898,15.486701965332031 589.3366928100586,39.43669891357422 590.5066757202148,60.706703186035156 595.0566635131836,58.646705627441406 598.6966781616211,68.2166976928711 658.7166976928711,29.86670684814453 "/>
   <polygon stroke="null" id="svg_656" fill="#209cee" points="591.7666854858398,39.096702575683594 592.8567123413086,58.55670928955078 658.9767074584961,29.216697692871094 602.9666976928711,27.576705932617188 591.7666854858398,39.096702575683594 "/>
   <polygon stroke="null" id="svg_657" opacity="0.2" points="591.7666854858398,39.096702575683594 592.8567123413086,58.55670928955078 658.9767074584961,29.216697692871094 602.9666976928711,27.576705932617188 591.7666854858398,39.096702575683594 "/>
   <polygon stroke="null" id="svg_658" fill="#209cee" points="591.4566879272461,17.196701049804688 658.9767074584961,29.216697692871094 591.7666854858398,39.096702575683594 591.4566879272461,17.196701049804688 "/>
   <polygon stroke="null" id="svg_659" fill="#209cee" points="600.4867172241211,65.42670440673828 658.5967025756836,28.9967041015625 592.5766830444336,44.99669647216797 600.4867172241211,65.42670440673828 "/>
   <polygon stroke="null" id="svg_1571" fill="#209cee" points="600.4867172241211,65.42670440673828 658.5967025756836,28.9967041015625 592.5766830444336,44.99669647216797 600.4867172241211,65.42670440673828 "/>
   <polygon stroke="null" id="svg_1572" fill="url(#7d984b9b-79bf-4ccd-9c01-273bb4695a47)" points="658.7166976928711,29.86670684814453 661.3966903686523,28.646705627441406 660.7867050170898,28.536697387695312 660.9966659545898,28.406700134277344 660.5967025756836,28.50670623779297 588.9966659545898,15.486701965332031 589.3366928100586,39.43669891357422 590.5066757202148,60.706703186035156 595.0566635131836,58.646705627441406 598.6966781616211,68.2166976928711 658.7166976928711,29.86670684814453 "/>
  </g>
  <g stroke="null" id="svg_1581">
   <polygon stroke="null" id="svg_1574" fill="url(#7d984b9b-79bf-4ccd-9c01-273bb4695a47)" points="1017.4962978363037,223.1747454404831 1020.9253749847412,221.6137102842331 1020.1449794769287,221.47294795513153 1020.4135341644287,221.30659663677216 1019.9018154144287,221.43455684185028 928.2870082855225,204.77502620220184 928.7220668792725,235.41989314556122 930.2191371917725,262.63562190532684 936.0409755706787,259.99978816509247 940.69850730896,272.24490535259247 1017.4962978363037,223.1747454404831 "/>
   <polygon stroke="null" id="svg_1575" fill="#209cee" points="931.83131980896,234.98483455181122 933.226095199585,259.8846148252487 1017.8289394378662,222.3430346250534 946.162130355835,220.24460017681122 931.83131980896,234.98483455181122 "/>
   <polygon stroke="null" id="svg_1576" opacity="0.2" points="931.83131980896,234.98483455181122 933.226095199585,259.8846148252487 1017.8289394378662,222.3430346250534 946.162130355835,220.24460017681122 931.83131980896,234.98483455181122 "/>
   <polygon stroke="null" id="svg_1577" fill="#209cee" points="931.4347133636475,206.96301448345184 1017.8289394378662,222.3430346250534 931.83131980896,234.98483455181122 931.4347133636475,206.96301448345184 "/>
   <polygon stroke="null" id="svg_1578" fill="#209cee" points="942.9889125823975,268.6750200986862 1017.3427333831787,222.0615404844284 932.8677577972412,242.53408992290497 942.9889125823975,268.6750200986862 "/>
   <polygon stroke="null" id="svg_1579" fill="#209cee" points="942.9889125823975,268.6750200986862 1017.3427333831787,222.0615404844284 932.8677577972412,242.53408992290497 942.9889125823975,268.6750200986862 "/>
   <polygon stroke="null" id="svg_1580" fill="url(#7d984b9b-79bf-4ccd-9c01-273bb4695a47)" points="1017.4962978363037,223.1747454404831 1020.9253749847412,221.6137102842331 1020.1449794769287,221.47294795513153 1020.4135341644287,221.30659663677216 1019.9018154144287,221.43455684185028 928.2870082855225,204.77502620220184 928.7220668792725,235.41989314556122 930.2191371917725,262.63562190532684 936.0409755706787,259.99978816509247 940.69850730896,272.24490535259247 1017.4962978363037,223.1747454404831 "/>
  </g>
  <g transform="rotate(4.548175811767578 803.7705688476566,284.71218872070364) " id="svg_1589">
   <polygon stroke="null" id="svg_1582" fill="url(#7d984b9b-79bf-4ccd-9c01-273bb4695a47)" points="837.2905197143555,272.7271890640259 839.970573425293,271.50718784332275 839.3605880737305,271.39717197418213 839.5705490112305,271.26716709136963 839.170524597168,271.36717319488525 767.5705490112305,258.3471689224243 767.9105758666992,282.2971658706665 769.0804977416992,303.5671854019165 773.6305465698242,301.50718784332275 777.2705001831055,311.0771646499634 837.2905197143555,272.7271890640259 "/>
   <polygon stroke="null" id="svg_1583" fill="#209cee" points="770.3405075073242,281.9571695327759 771.430534362793,301.41719150543213 837.5505294799805,272.0771646499634 781.5405197143555,270.437180519104 770.3405075073242,281.9571695327759 "/>
   <polygon stroke="null" id="svg_1584" opacity="0.2" points="770.3405075073242,281.9571695327759 771.430534362793,301.41719150543213 837.5505294799805,272.0771646499634 781.5405197143555,270.437180519104 770.3405075073242,281.9571695327759 "/>
   <polygon stroke="null" id="svg_1585" fill="#209cee" points="770.0305099487305,260.0571756362915 837.5505294799805,272.0771646499634 770.3405075073242,281.9571695327759 770.0305099487305,260.0571756362915 "/>
   <polygon stroke="null" id="svg_1586" fill="#209cee" points="779.0605392456055,308.28718662261963 837.170524597168,271.8571939468384 771.150505065918,287.85716342926025 779.0605392456055,308.28718662261963 "/>
   <polygon stroke="null" id="svg_1587" fill="#209cee" points="779.0605392456055,308.28718662261963 837.170524597168,271.8571939468384 771.150505065918,287.85716342926025 779.0605392456055,308.28718662261963 "/>
   <polygon stroke="null" id="svg_1588" fill="url(#7d984b9b-79bf-4ccd-9c01-273bb4695a47)" points="837.2905197143555,272.7271890640259 839.970573425293,271.50718784332275 839.3605880737305,271.39717197418213 839.5705490112305,271.26716709136963 839.170524597168,271.36717319488525 767.5705490112305,258.3471689224243 767.9105758666992,282.2971658706665 769.0804977416992,303.5671854019165 773.6305465698242,301.50718784332275 777.2705001831055,311.0771646499634 837.2905197143555,272.7271890640259 "/>
  </g>
  <g stroke="null" id="svg_1595" opacity="0.2">
   <polygon stroke="null" id="svg_1590" fill="url(#8fce74bc-e786-4184-8196-133889bce917)" points="896.2560424804688,209.93225860595703 897.2860412597656,209.15225982666016 897.0160369873047,209.16223907470703 897.0960388183594,209.09223175048828 896.93603515625,209.17224884033203 865.1560363769531,210.47223663330078 867.5960388183594,220.65225982666016 870.1260375976562,229.61225128173828 871.8760375976562,228.30225372314453 874.3460388183594,232.03223419189453 896.2560424804688,209.93225860595703 "/>
   <polygon stroke="null" id="svg_1591" fill="#209cee" points="868.5960388183594,220.28223419189453 870.9260559082031,228.47223663330078 896.3060455322266,209.63224029541016 872.2660522460938,214.30225372314453 868.5960388183594,220.28223419189453 "/>
   <polygon stroke="null" id="svg_1592" opacity="0.2" points="868.5960388183594,220.28223419189453 870.9260559082031,228.47223663330078 896.3060455322266,209.63224029541016 872.2660522460938,214.30225372314453 868.5960388183594,220.28223419189453 "/>
   <polygon stroke="null" id="svg_1593" fill="#209cee" points="866.3660583496094,210.97223663330078 896.3060455322266,209.63224029541016 868.5960388183594,220.28223419189453 866.3660583496094,210.97223663330078 "/>
   <polygon stroke="null" id="svg_1594" fill="#209cee" points="874.8360595703125,230.67224884033203 896.1260375976562,209.5722427368164 869.5060424804688,222.72223663330078 874.8360595703125,230.67224884033203 "/>
  </g>
  <g stroke="null" id="svg_1601" opacity="0.2">
   <polygon stroke="null" id="svg_1596" fill="url(#8fce74bc-e786-4184-8196-133889bce917)" points="895.68505859375,14.304880142211914 896.7150573730469,13.524881362915039 896.445068359375,13.534875869750977 896.5250549316406,13.464876174926758 896.3650512695312,13.544885635375977 864.5850524902344,14.844881057739258 867.0250549316406,25.02488136291504 869.5550537109375,33.98488807678223 871.3050537109375,32.674875259399414 873.7750549316406,36.40488624572754 895.68505859375,14.304880142211914 "/>
   <polygon stroke="null" id="svg_1597" fill="#209cee" points="868.0250549316406,24.65488624572754 870.3550720214844,32.84488868713379 895.7350769042969,14.004884719848633 871.695068359375,18.674875259399414 868.0250549316406,24.65488624572754 "/>
   <polygon stroke="null" id="svg_1598" opacity="0.2" points="868.0250549316406,24.65488624572754 870.3550720214844,32.84488868713379 895.7350769042969,14.004884719848633 871.695068359375,18.674875259399414 868.0250549316406,24.65488624572754 "/>
   <polygon stroke="null" id="svg_1599" fill="#209cee" points="865.7950744628906,15.344881057739258 895.7350769042969,14.004884719848633 868.0250549316406,24.65488624572754 865.7950744628906,15.344881057739258 "/>
   <polygon stroke="null" id="svg_1600" fill="#209cee" points="874.2650756835938,35.04488563537598 895.5550537109375,13.944879531860352 868.93505859375,27.09488868713379 874.2650756835938,35.04488563537598 "/>
  </g>
  <g stroke="null" id="svg_1607" opacity="0.2">
   <polygon stroke="null" id="svg_1602" fill="url(#8fce74bc-e786-4184-8196-133889bce917)" points="1002.8293838500977,109.54428291320801 1003.8593521118164,108.76428413391113 1003.5893936157227,108.77427864074707 1003.6693496704102,108.70427894592285 1003.5093765258789,108.78428840637207 971.7294082641602,110.08428382873535 974.1694107055664,120.26428413391113 976.6993789672852,129.2242889404297 978.4493789672852,127.91427612304688 980.9193496704102,131.644287109375 1002.8293838500977,109.54428291320801 "/>
   <polygon stroke="null" id="svg_1603" fill="#209cee" points="975.1694107055664,119.89428901672363 977.4994277954102,128.08428955078125 1002.8794326782227,109.24428749084473 978.8393936157227,113.91427803039551 975.1694107055664,119.89428901672363 "/>
   <polygon stroke="null" id="svg_1604" opacity="0.2" points="975.1694107055664,119.89428901672363 977.4994277954102,128.08428955078125 1002.8794326782227,109.24428749084473 978.8393936157227,113.91427803039551 975.1694107055664,119.89428901672363 "/>
   <polygon stroke="null" id="svg_1605" fill="#209cee" points="972.9393692016602,110.58428382873535 1002.8794326782227,109.24428749084473 975.1694107055664,119.89428901672363 972.9393692016602,110.58428382873535 "/>
   <polygon stroke="null" id="svg_1606" fill="#209cee" points="981.4094009399414,130.28428649902344 1002.6993789672852,109.18428230285645 976.0793838500977,122.33429145812988 981.4094009399414,130.28428649902344 "/>
  </g>
  <g stroke="null" transform="rotate(7.504751682281494 979.6469726562501,54.17422485351572) " id="svg_1613" opacity="0.2">
   <polygon stroke="null" id="svg_1608" fill="url(#8fce74bc-e786-4184-8196-133889bce917)" points="1007.8319091796875,34.24700927734375 1009.7627563476562,32.7847900390625 1009.2566528320312,32.8035888671875 1009.4066162109375,32.672332763671875 1009.1065673828125,32.82220458984375 949.5311584472656,35.25927734375 954.105224609375,54.34295654296875 958.8479919433594,71.13955688476562 962.1285400390625,68.683837890625 966.7589111328125,75.67611694335938 1007.8319091796875,34.24700927734375 "/>
   <polygon stroke="null" id="svg_1609" fill="#209cee" points="955.9798278808594,53.649322509765625 960.3476867675781,69.00253295898438 1007.9257202148438,33.684600830078125 962.8596801757812,42.439056396484375 955.9798278808594,53.649322509765625 "/>
   <polygon stroke="null" id="svg_1610" opacity="0.2" points="955.9798278808594,53.649322509765625 960.3476867675781,69.00253295898438 1007.9257202148438,33.684600830078125 962.8596801757812,42.439056396484375 955.9798278808594,53.649322509765625 "/>
   <polygon stroke="null" id="svg_1611" fill="#209cee" points="951.7994995117188,36.196563720703125 1007.9257202148438,33.684600830078125 955.9798278808594,53.649322509765625 951.7994995117188,36.196563720703125 "/>
   <polygon stroke="null" id="svg_1612" fill="#209cee" points="967.677490234375,73.12673950195312 1007.5881958007812,33.572052001953125 957.6857604980469,58.22344970703125 967.677490234375,73.12673950195312 "/>
  </g>
  <g transform="rotate(-29.783363342285156 48.93041229248032,586.0731811523438) " stroke="null" id="svg_1620">
   <polygon stroke="null" id="svg_1614" fill="url(#468c021b-e5c9-4e7f-8066-86a3295c31c0)" points="84.81542110443115,605.8131999969482 87.7554235458374,605.9932537078857 87.26537227630615,605.6132488250732 87.51537227630615,605.593168258667 87.1154088973999,605.4931926727295 29.915427207946777,560.5032024383545 19.015402793884277,581.8232097625732 10.105429649353027,601.1831951141357 15.095419883728027,601.4831829071045 13.835410118103027,611.643217086792 84.81542110443115,605.8131999969482 "/>
   <polygon stroke="null" id="svg_1615" fill="#209cee" points="21.315451622009277,582.6631755828857 13.185446739196777,600.373197555542 85.3453893661499,605.3632488250732 36.60542964935303,577.7231731414795 21.315451622009277,582.6631755828857 "/>
   <polygon stroke="null" id="svg_1616" opacity="0.2" points="21.315451622009277,582.6631755828857 13.185446739196777,600.373197555542 85.3453893661499,605.3632488250732 36.60542964935303,577.7231731414795 21.315451622009277,582.6631755828857 "/>
   <polygon stroke="null" id="svg_1617" fill="#209cee" points="31.285422325134277,563.1631755828857 85.3453893661499,605.3632488250732 21.315451622009277,582.6631755828857 31.285422325134277,563.1631755828857 "/>
   <polygon stroke="null" id="svg_1618" fill="#209cee" points="16.715415000915527,610.0132122039795 85.1154088973999,604.9932537078857 19.275412559509277,588.2532024383545 16.715415000915527,610.0132122039795 "/>
   <polygon stroke="null" id="svg_1619" fill="#209cee" points="31.285422325134277,563.1631755828857 85.3453893661499,605.3632488250732 21.315451622009277,582.6631755828857 31.285422325134277,563.1631755828857 "/>
  </g>
  <g stroke="null" transform="rotate(50.16727828979492 336.78100585937494,499.41839599609375) " id="svg_1626" opacity="0.2">
   <polygon stroke="null" id="svg_1621" fill="url(#8fce74bc-e786-4184-8196-133889bce917)" points="364.96595764160156,479.4911994934082 366.8968048095703,478.02898025512695 366.3907012939453,478.04777908325195 366.54066467285156,477.9165229797363 366.24061584472656,478.0663948059082 306.6652069091797,480.50346755981445 311.23927307128906,499.5871467590332 315.98204040527344,516.3837471008301 319.26258850097656,513.9280281066895 323.89295959472656,520.9203071594238 364.96595764160156,479.4911994934082 "/>
   <polygon stroke="null" id="svg_1622" fill="#209cee" points="313.11387634277344,498.8935127258301 317.4817352294922,514.2467231750488 365.0597686767578,478.9287910461426 319.9937286376953,487.6832466125488 313.11387634277344,498.8935127258301 "/>
   <polygon stroke="null" id="svg_1623" opacity="0.2" points="313.11387634277344,498.8935127258301 317.4817352294922,514.2467231750488 365.0597686767578,478.9287910461426 319.9937286376953,487.6832466125488 313.11387634277344,498.8935127258301 "/>
   <polygon stroke="null" id="svg_1624" fill="#209cee" points="308.9335479736328,481.4407539367676 365.0597686767578,478.9287910461426 313.11387634277344,498.8935127258301 308.9335479736328,481.4407539367676 "/>
   <polygon stroke="null" id="svg_1625" fill="#209cee" points="324.81153869628906,518.3709297180176 364.7222442626953,478.8162422180176 314.81980895996094,503.4676399230957 324.81153869628906,518.3709297180176 "/>
  </g>
  <g stroke="null" transform="rotate(-28.234527587890625 377.5063781738278,578.9302368164061) " id="svg_1633">
   <polygon stroke="null" id="svg_1627" fill="url(#468c021b-e5c9-4e7f-8066-86a3295c31c0)" points="413.3913879394531,598.6701927185059 416.33135986328125,598.8502464294434 415.8413391113281,598.4702415466309 416.0913391113281,598.4502220153809 415.69134521484375,598.3502464294434 358.4913635253906,553.3602561950684 347.5913391113281,574.6802635192871 338.6813659667969,594.0401878356934 343.6713562011719,594.3402366638184 342.411376953125,604.5002708435059 413.3913879394531,598.6701927185059 "/>
   <polygon stroke="null" id="svg_1628" fill="#209cee" points="349.89141845703125,575.5202293395996 341.7613830566406,593.2301902770996 413.9213562011719,598.2202415466309 365.1813659667969,570.5802268981934 349.89141845703125,575.5202293395996 "/>
   <polygon stroke="null" id="svg_1629" opacity="0.2" points="349.89141845703125,575.5202293395996 341.7613830566406,593.2301902770996 413.9213562011719,598.2202415466309 365.1813659667969,570.5802268981934 349.89141845703125,575.5202293395996 "/>
   <polygon stroke="null" id="svg_1630" fill="#209cee" points="359.86138916015625,556.0202293395996 413.9213562011719,598.2202415466309 349.89141845703125,575.5202293395996 359.86138916015625,556.0202293395996 "/>
   <polygon stroke="null" id="svg_1631" fill="#209cee" points="345.2913513183594,602.8702659606934 413.69134521484375,597.8502464294434 347.85137939453125,581.1101951599121 345.2913513183594,602.8702659606934 "/>
   <polygon stroke="null" id="svg_1632" fill="#209cee" points="359.86138916015625,556.0202293395996 413.9213562011719,598.2202415466309 349.89141845703125,575.5202293395996 359.86138916015625,556.0202293395996 "/>
  </g>
  <g transform="rotate(0.9937587976455688 549.2429809570181,597.4858398437494) " stroke="null" id="svg_1639" opacity="0.3">
   <polygon stroke="null" id="svg_1634" fill="url(#ec4cef39-2f7d-4633-a76d-8aa6eb49d472)" points="579.339204788208,576.2114639282227 581.3796100616455,574.6711196899414 580.8395709991455,574.6911392211914 580.9994831085205,574.5310440063477 580.6794147491455,574.6911392211914 517.106294631958,577.3116226196289 521.9872760772705,597.6758804321289 527.0683307647705,615.5995864868164 530.5490436553955,612.9590835571289 535.490083694458,620.4405899047852 579.339204788208,576.2114639282227 "/>
   <polygon stroke="null" id="svg_1635" fill="#209cee" points="523.987642288208,596.9157485961914 528.6486530303955,613.3191299438477 579.4391803741455,575.6113052368164 531.329195022583,584.9532241821289 523.987642288208,596.9157485961914 "/>
   <polygon stroke="null" id="svg_1636" opacity="0.2" points="523.987642288208,596.9157485961914 528.6486530303955,613.3191299438477 579.4391803741455,575.6113052368164 531.329195022583,584.9532241821289 523.987642288208,596.9157485961914 "/>
   <polygon stroke="null" id="svg_1637" fill="#209cee" points="519.526704788208,578.2918472290039 579.4391803741455,575.6113052368164 523.987642288208,596.9157485961914 519.526704788208,578.2918472290039 "/>
   <polygon stroke="null" id="svg_1638" fill="#209cee" points="536.4703693389893,617.7000503540039 579.059175491333,575.5112686157227 525.8080768585205,601.7967300415039 536.4703693389893,617.7000503540039 "/>
  </g>
  <g transform="rotate(10.78138542175293 409.36010742187483,327.4991455078125) " stroke="null" id="svg_1645" opacity="0.3">
   <polygon stroke="null" id="svg_1640" fill="url(#ec4cef39-2f7d-4633-a76d-8aa6eb49d472)" points="467.8864517211914,286.1282043457031 471.8543167114258,283.1328430175781 470.8041458129883,283.1716613769531 471.11511993408203,282.8603820800781 470.49268341064453,283.1716613769531 346.86588287353516,288.2676696777344 356.3576431274414,327.8687438964844 366.23844146728516,362.7239074707031 373.0071792602539,357.5890197753906 382.61573028564453,372.1379089355469 467.8864517211914,286.1282043457031 "/>
   <polygon stroke="null" id="svg_1641" fill="#209cee" points="360.2476272583008,326.39056396484375 369.3116226196289,358.2892150878906 468.0808792114258,284.9610900878906 374.52429962158203,303.1278381347656 360.2476272583008,326.39056396484375 "/>
   <polygon stroke="null" id="svg_1642" opacity="0.2" points="360.2476272583008,326.39056396484375 369.3116226196289,358.2892150878906 468.0808792114258,284.9610900878906 374.52429962158203,303.1278381347656 360.2476272583008,326.39056396484375 "/>
   <polygon stroke="null" id="svg_1643" fill="#209cee" points="351.5727005004883,290.1737976074219 468.0808792114258,284.9610900878906 360.2476272583008,326.39056396484375 351.5727005004883,290.1737976074219 "/>
   <polygon stroke="null" id="svg_1644" fill="#209cee" points="384.5220413208008,366.8084716796875 467.3418960571289,284.7665710449219 363.78772735595703,335.88232421875 384.5220413208008,366.8084716796875 "/>
  </g>
 </g>
</svg>