<svg width="1686" height="882" viewBox="0 0 1686 882" fill="none" xmlns="http://www.w3.org/2000/svg">
<rect width="1686" height="882" fill="#282A36"/>
<path d="M141.455 340.182H128.864V323.455H106.636V340.182H97.4091V356.545H106.636V390.5C106.5 404.636 115.682 411.727 131.364 411C136.727 410.727 140.591 409.636 142.727 409L139.364 392.955C138.409 393.182 136.182 393.636 134.5 393.636C130.909 393.636 128.864 392.182 128.864 388.045V356.545H141.455V340.182ZM176.523 370.182C176.568 362.227 181.295 357.5 188.341 357.5C195.477 357.5 199.614 362.091 199.568 369.864V410H221.795V365.5C221.841 349.682 212.205 339.273 197.523 339.273C187.068 339.273 179.705 344.409 176.568 353H175.795V316.909H154.295V410H176.523V370.182ZM268.261 411.318C290.216 411.318 303.534 396.818 303.534 375.318C303.534 353.773 290.216 339.273 268.261 339.273C246.307 339.273 232.989 353.773 232.989 375.318C232.989 396.818 246.307 411.318 268.261 411.318ZM268.398 394.545C260.17 394.545 255.625 386.727 255.625 375.182C255.625 363.591 260.17 355.727 268.398 355.727C276.352 355.727 280.898 363.591 280.898 375.182C280.898 386.727 276.352 394.545 268.398 394.545ZM359.966 379.864C359.966 388 354.784 392.545 348.193 392.545C341.375 392.545 337.193 387.909 337.148 380.318V340.182H314.92V384.682C314.966 400.455 324.557 410.909 338.92 410.909C349.375 410.909 357.148 405.545 360.239 397H360.966V410H382.148V340.182H359.966V379.864ZM428.841 437.045C449.886 437.045 464.25 427.455 464.25 410.273V340.182H442.114V352.136H441.477C438.795 345.727 432.705 339.273 421.705 339.273C407.114 339.273 393.886 350.5 393.886 375C393.886 398.727 406.477 409.045 421.795 409.045C432.068 409.045 438.932 404.273 441.568 397.818H442.341V410.091C442.341 418.455 436.886 421.636 429.432 421.636C422.295 421.636 418.023 418.909 416.841 415.182L395.795 416.364C397.432 428 408.932 437.045 428.841 437.045ZM429.523 392.864C421.295 392.864 416.705 386.182 416.705 375C416.705 363.864 421.25 356.636 429.523 356.636C437.659 356.636 442.386 363.682 442.386 375C442.386 386.227 437.614 392.864 429.523 392.864ZM500.648 370.182C500.693 362.227 505.42 357.5 512.466 357.5C519.602 357.5 523.739 362.091 523.693 369.864V410H545.92V365.5C545.966 349.682 536.33 339.273 521.648 339.273C511.193 339.273 503.83 344.409 500.693 353H499.92V316.909H478.42V410H500.648V370.182ZM599.205 340.182H586.614V323.455H564.386V340.182H555.159V356.545H564.386V390.5C564.25 404.636 573.432 411.727 589.114 411C594.477 410.727 598.341 409.636 600.477 409L597.114 392.955C596.159 393.182 593.932 393.636 592.25 393.636C588.659 393.636 586.614 392.182 586.614 388.045V356.545H599.205V340.182ZM670.625 361.5C669.443 347.682 658.125 339.273 639.216 339.273C620.307 339.273 608.261 347.5 608.352 361.5C608.261 372.227 615.125 379.136 629.08 381.727L641.261 384.045C647.034 385.182 649.67 387 649.761 390.091C649.67 393.591 645.761 395.909 640.08 395.909C633.761 395.909 629.489 393.182 628.534 388.091L606.58 388.636C608.17 402.455 620.034 411.318 639.989 411.318C658.67 411.318 672.261 402 672.352 387.636C672.261 377.455 665.534 371.409 651.625 368.727L638.17 366.182C632.261 365 630.352 362.909 630.398 360.227C630.352 356.682 634.489 354.5 639.625 354.5C645.489 354.5 649.58 357.636 650.216 362.045L670.625 361.5ZM743.386 411.318C765.341 411.318 778.659 396.818 778.659 375.318C778.659 353.773 765.341 339.273 743.386 339.273C721.432 339.273 708.114 353.773 708.114 375.318C708.114 396.818 721.432 411.318 743.386 411.318ZM743.523 394.545C735.295 394.545 730.75 386.727 730.75 375.182C730.75 363.591 735.295 355.727 743.523 355.727C751.477 355.727 756.023 363.591 756.023 375.182C756.023 386.727 751.477 394.545 743.523 394.545ZM812.273 370.182C812.318 362.227 816.955 357.5 824 357.5C831.045 357.5 835.227 362.136 835.182 369.864V410H857.409V365.5C857.455 349.773 847.864 339.273 833.182 339.273C822.864 339.273 815.045 344.5 811.955 353H811.182V340.182H790.045V410H812.273V370.182ZM115.545 471.909H100.455V508.409H115.545V471.909ZM139.091 471.909H124V508.409H139.091V471.909ZM179.295 591.182H201.523V553.682H201.977C204.795 560.136 211.068 566 221.614 566C237.068 566 249.523 553.909 249.523 530.136C249.523 505.5 236.341 494.273 221.75 494.273C210.705 494.273 204.659 500.727 201.977 507.136H201.295V495.182H179.295V591.182ZM201.068 530.091C201.068 518.682 205.795 511.636 213.932 511.636C222.159 511.636 226.705 518.864 226.705 530.091C226.705 541.364 222.159 548.682 213.932 548.682C205.795 548.682 201.068 541.409 201.068 530.091ZM280.852 566.182C290.58 566.182 297.307 562.409 301.125 555.273H301.67V565H322.58V517.545C322.58 502.773 309.443 494.273 291.67 494.273C272.898 494.273 262.261 503.727 260.489 516.455L280.989 517.182C281.943 512.727 285.625 510 291.489 510C296.943 510 300.398 512.636 300.398 517.318V517.545C300.398 521.818 295.761 522.727 283.852 523.773C269.716 524.955 257.898 530.182 257.898 545.636C257.898 559.455 267.489 566.182 280.852 566.182ZM287.716 551.636C282.58 551.636 278.943 549.182 278.943 544.545C278.943 540.045 282.489 537.318 288.807 536.364C292.943 535.773 298.034 534.864 300.534 533.545V540.182C300.534 547 294.807 551.636 287.716 551.636ZM336.17 591.182H358.398V553.682H358.852C361.67 560.136 367.943 566 378.489 566C393.943 566 406.398 553.909 406.398 530.136C406.398 505.5 393.216 494.273 378.625 494.273C367.58 494.273 361.534 500.727 358.852 507.136H358.17V495.182H336.17V591.182ZM357.943 530.091C357.943 518.682 362.67 511.636 370.807 511.636C379.034 511.636 383.58 518.864 383.58 530.091C383.58 541.364 379.034 548.682 370.807 548.682C362.67 548.682 357.943 541.409 357.943 530.091ZM450.682 566.318C469 566.318 481.045 557.455 483.591 543.727L463.182 543.136C461.455 547.773 456.909 550.273 451.091 550.273C442.545 550.273 437.273 544.591 437.273 536.045V535.455H483.818V529.909C483.818 506.909 469.818 494.273 450 494.273C428.909 494.273 415.364 508.727 415.364 530.364C415.364 552.727 428.727 566.318 450.682 566.318ZM437.273 522.545C437.591 515.591 443.091 510.318 450.455 510.318C457.773 510.318 463.045 515.409 463.136 522.545H437.273ZM495.17 565H517.398V527.091C517.398 518.773 523.307 513.182 531.261 513.182C533.898 513.182 537.852 513.636 539.989 514.364V495.045C538.125 494.545 535.807 494.227 533.761 494.227C526.125 494.227 520.034 498.682 517.489 507.909H516.761V495.182H495.17V565ZM590.045 471.909H574.955V508.409H590.045V471.909ZM613.591 471.909H598.5V508.409H613.591V471.909Z" fill="#FF79C6"/>
<rect x="1082" y="234" width="414" height="84" fill="#FF79C6" fill-opacity="0.58"/>
<rect x="1082" y="564" width="414" height="84" fill="#FF79C6" fill-opacity="0.58"/>
<rect x="1082" y="66" width="604" height="84" fill="#BD93F9" fill-opacity="0.58"/>
<rect x="1079" y="402" width="607" height="84" fill="#BD93F9" fill-opacity="0.58"/>
<rect x="1079" y="732" width="607" height="84" fill="#BD93F9" fill-opacity="0.58"/>
</svg>
